<?xml version="1.0" standalone="no"?><!DOCTYPE svg PUBLIC "-//W3C//DTD SVG 1.1//EN" "http://www.w3.org/Graphics/SVG/1.1/DTD/svg11.dtd" ><svg version="1.1" xmlns="http://www.w3.org/2000/svg"><defs><font horiz-adv-x="0" id="font"><font-face ascent="830" bbox="-120 -183 870 893" cap-height="614" descent="-170" font-family="Copyright Klim Type Foundry" font-stretch="normal" font-style="normal" font-weight="200" units-per-em="1000" x-height="444" /><missing-glyph horiz-adv-x="608" /><glyph glyph-name=".null" horiz-adv-x="0" /><glyph d="M171 248H407L289 548ZM425 202H153L74 0H23L266 614H313L556 0H505Z" glyph-name="A" horiz-adv-x="579" unicode="A" /><glyph d="M233 248H434V569ZM434 202H204L77 0H23L405 614H802V567H484V340H771V293H484V47H802V0H434Z" glyph-name="AE" horiz-adv-x="858" unicode="&#198;" /><glyph d="M233 248H434V569ZM434 202H204L77 0H23L405 614H802V567H484V340H771V293H484V47H802V0H434ZM569 665 651 782H707L619 665Z" glyph-name="AEacute" horiz-adv-x="858" unicode="&#508;" /><glyph d="M171 248H407L289 548ZM425 202H153L74 0H23L266 614H313L556 0H505ZM265 665 347 782H403L315 665Z" glyph-name="Aacute" horiz-adv-x="579" unicode="&#193;" /><glyph d="M171 248H407L289 548ZM425 202H153L74 0H23L266 614H313L556 0H505ZM290 664Q245 664 216 694Q187 724 187 781H227Q227 743 244.5 722.5Q262 702 290 702Q317 702 335 722.5Q353 743 353 781H392Q392 724 363.5 694Q335 664 290 664Z" glyph-name="Abreve" horiz-adv-x="579" unicode="&#258;" /><glyph d="M171 248H407L289 548ZM425 202H153L74 0H23L266 614H313L556 0H505ZM403 667H356L289 751L222 667H175L267 786H311Z" glyph-name="Acircumflex" horiz-adv-x="579" unicode="&#194;" /><glyph d="M171 248H407L289 548ZM425 202H153L74 0H23L266 614H313L556 0H505ZM195 715Q195 729 204.5 738.5Q214 748 228 748Q241 748 250.5 738.5Q260 729 260 715Q260 702 250.5 692Q241 682 228 682Q214 682 204.5 692Q195 702 195 715ZM320 715Q320 729 329.5 738.5Q339 748 352 748Q365 748 375 738.5Q385 729 385 715Q385 702 375 692Q365 682 352 682Q339 682 329.5 692Q320 702 320 715Z" glyph-name="Adieresis" horiz-adv-x="579" unicode="&#196;" /><glyph d="M171 248H407L289 548ZM425 202H153L74 0H23L266 614H313L556 0H505ZM262 665 175 782H230L313 665Z" glyph-name="Agrave" horiz-adv-x="579" unicode="&#192;" /><glyph d="M171 248H407L289 548ZM425 202H153L74 0H23L266 614H313L556 0H505ZM189 712H390V670H189Z" glyph-name="Amacron" horiz-adv-x="579" unicode="&#256;" /><glyph d="M313 614 556 0Q525 -54 515.5 -76Q506 -98 506 -117Q506 -131 513 -138Q520 -145 531 -145Q541 -145 549.5 -141.5Q558 -138 568 -131V-167Q558 -174 547 -178Q536 -182 523 -182Q498 -182 482 -167Q466 -152 466 -122Q466 -98 478 -72Q490 -46 517 0H505L425 202H153L74 0H23L266 614ZM171 248H407L289 548Z" glyph-name="Aogonek" horiz-adv-x="579" unicode="&#260;" /><glyph d="M171 248H407L289 548ZM425 202H153L74 0H23L266 614H313L556 0H505ZM370 728Q370 694 346.5 671Q323 648 289 648Q255 648 231.5 671Q208 694 208 728Q208 762 231.5 785.5Q255 809 289 809Q323 809 346.5 785.5Q370 762 370 728ZM338 728Q338 749 323.5 763.5Q309 778 289 778Q269 778 254.5 763.5Q240 749 240 728Q240 708 254.5 693.5Q269 679 289 679Q309 679 323.5 693.5Q338 708 338 728Z" glyph-name="Aring" horiz-adv-x="579" unicode="&#197;" /><glyph d="M267 810 325 893H378L315 810ZM373 711Q373 682 348.5 661.5Q324 641 289 641Q255 641 230 661.5Q205 682 205 711Q205 742 230 762.5Q255 783 289 783Q324 783 348.5 762.5Q373 742 373 711ZM340 711Q340 730 325.5 741.5Q311 753 289 753Q268 753 253 741.5Q238 730 238 711Q238 694 253 682.5Q268 671 289 671Q311 671 325.5 682.5Q340 694 340 711ZM171 248H407L289 548ZM425 202H153L74 0H23L266 614H313L556 0H505Z" glyph-name="Aringacute" horiz-adv-x="579" unicode="&#506;" /><glyph d="M171 248H407L289 548ZM425 202H153L74 0H23L266 614H313L556 0H505ZM415 769Q415 722 397.5 693.5Q380 665 346 665Q308 665 286 697Q264 729 236 729Q218 729 209 712.5Q200 696 200 668H164Q164 714 181.5 743Q199 772 233 772Q272 772 293.5 740Q315 708 343 708Q361 708 370 724.5Q379 741 380 769Z" glyph-name="Atilde" horiz-adv-x="579" unicode="&#195;" /><glyph d="M362 318Q419 308 452.5 266Q486 224 486 169Q486 88 432.5 44Q379 0 286 0H79V614H267Q361 614 412 572.5Q463 531 463 455Q463 395 432.5 362.5Q402 330 362 318ZM267 338Q337 338 375 367Q413 396 413 453Q413 510 375 539Q337 568 267 568H129V338ZM129 46H289Q361 46 398 80Q435 114 435 170Q435 226 398 260Q361 294 289 294H129Z" glyph-name="B" horiz-adv-x="523" unicode="B" /><glyph d="M91 307Q91 185 152.5 112Q214 39 309 39Q376 39 421.5 74Q467 109 486 167L533 153Q511 80 452 35.5Q393 -9 309 -9Q196 -9 117.5 76.5Q39 162 39 307Q39 452 117.5 537.5Q196 623 309 623Q393 623 452 578.5Q511 534 533 461L486 447Q467 505 421.5 540Q376 575 309 575Q214 575 152.5 502Q91 429 91 307Z" glyph-name="C" horiz-adv-x="573" unicode="C" /><glyph d="M91 307Q91 185 152.5 112Q214 39 309 39Q376 39 421.5 74Q467 109 486 167L533 153Q511 80 452 35.5Q393 -9 309 -9Q196 -9 117.5 76.5Q39 162 39 307Q39 452 117.5 537.5Q196 623 309 623Q393 623 452 578.5Q511 534 533 461L486 447Q467 505 421.5 540Q376 575 309 575Q214 575 152.5 502Q91 429 91 307ZM284 665 366 782H422L334 665Z" glyph-name="Cacute" horiz-adv-x="573" unicode="&#262;" /><glyph d="M91 307Q91 185 152.5 112Q214 39 309 39Q376 39 421.5 74Q467 109 486 167L533 153Q511 80 452 35.5Q393 -9 309 -9Q196 -9 117.5 76.5Q39 162 39 307Q39 452 117.5 537.5Q196 623 309 623Q393 623 452 578.5Q511 534 533 461L486 447Q467 505 421.5 540Q376 575 309 575Q214 575 152.5 502Q91 429 91 307ZM199 779H246L313 696L380 779H427L335 660H291Z" glyph-name="Ccaron" horiz-adv-x="573" unicode="&#268;" /><glyph d="M91 307Q91 185 152.5 112Q214 39 309 39Q376 39 421.5 74Q467 109 486 167L533 153Q511 80 452 35.5Q393 -9 309 -9Q196 -9 117.5 76.5Q39 162 39 307Q39 452 117.5 537.5Q196 623 309 623Q393 623 452 578.5Q511 534 533 461L486 447Q467 505 421.5 540Q376 575 309 575Q214 575 152.5 502Q91 429 91 307ZM231 -175 290 -48H338L277 -175Z" glyph-name="Ccedilla" horiz-adv-x="573" unicode="&#199;" /><glyph d="M91 307Q91 185 152.5 112Q214 39 309 39Q376 39 421.5 74Q467 109 486 167L533 153Q511 80 452 35.5Q393 -9 309 -9Q196 -9 117.5 76.5Q39 162 39 307Q39 452 117.5 537.5Q196 623 309 623Q393 623 452 578.5Q511 534 533 461L486 447Q467 505 421.5 540Q376 575 309 575Q214 575 152.5 502Q91 429 91 307ZM428 667H381L314 751L247 667H200L292 786H336Z" glyph-name="Ccircumflex" horiz-adv-x="573" unicode="&#264;" /><glyph d="M91 307Q91 185 152.5 112Q214 39 309 39Q376 39 421.5 74Q467 109 486 167L533 153Q511 80 452 35.5Q393 -9 309 -9Q196 -9 117.5 76.5Q39 162 39 307Q39 452 117.5 537.5Q196 623 309 623Q393 623 452 578.5Q511 534 533 461L486 447Q467 505 421.5 540Q376 575 309 575Q214 575 152.5 502Q91 429 91 307ZM347 714Q347 700 337 690Q327 680 313 680Q299 680 289 690Q279 700 279 714Q279 728 289 738Q299 748 313 748Q327 748 337 738Q347 728 347 714Z" glyph-name="Cdotaccent" horiz-adv-x="573" unicode="&#266;" /><glyph d="M79 614H266Q399 614 481.5 530.5Q564 447 564 307Q564 167 481.5 83.5Q399 0 266 0H79ZM266 47Q379 47 445.5 118.5Q512 190 512 307Q512 424 445.5 495.5Q379 567 266 567H130V47Z" glyph-name="D" horiz-adv-x="602" unicode="D" /><glyph d="M79 614H266Q399 614 481.5 530.5Q564 447 564 307Q564 167 481.5 83.5Q399 0 266 0H79ZM266 47Q379 47 445.5 118.5Q512 190 512 307Q512 424 445.5 495.5Q379 567 266 567H130V47ZM163 779H210L277 696L344 779H391L299 660H255Z" glyph-name="Dcaron" horiz-adv-x="602" unicode="&#270;" /><glyph d="M92 0V295H34V340H92V614H279Q412 614 494.5 530.5Q577 447 577 307Q577 167 494.5 83.5Q412 0 279 0ZM279 47Q392 47 458.5 118.5Q525 190 525 307Q525 424 458.5 495.5Q392 567 279 567H143V340H273V295H143V47Z" glyph-name="Dcroat" horiz-adv-x="616" unicode="&#272;" /><glyph d="M460 614V567H129V340H429V293H129V47H460V0H79V614Z" glyph-name="E" horiz-adv-x="515" unicode="E" /><glyph d="M460 614V567H129V340H429V293H129V47H460V0H79V614ZM244 665 326 782H382L294 665Z" glyph-name="Eacute" horiz-adv-x="515" unicode="&#201;" /><glyph d="M460 614V567H129V340H429V293H129V47H460V0H79V614ZM274 664Q229 664 200 694Q171 724 171 781H211Q211 743 228.5 722.5Q246 702 274 702Q301 702 319 722.5Q337 743 337 781H376Q376 724 347.5 694Q319 664 274 664Z" glyph-name="Ebreve" horiz-adv-x="515" unicode="&#276;" /><glyph d="M460 614V567H129V340H429V293H129V47H460V0H79V614ZM162 779H209L276 696L343 779H390L298 660H254Z" glyph-name="Ecaron" horiz-adv-x="515" unicode="&#282;" /><glyph d="M460 614V567H129V340H429V293H129V47H460V0H79V614ZM388 667H341L274 751L207 667H160L252 786H296Z" glyph-name="Ecircumflex" horiz-adv-x="515" unicode="&#202;" /><glyph d="M460 614V567H129V340H429V293H129V47H460V0H79V614ZM179 715Q179 729 188.5 738.5Q198 748 212 748Q225 748 234.5 738.5Q244 729 244 715Q244 702 234.5 692Q225 682 212 682Q198 682 188.5 692Q179 702 179 715ZM304 715Q304 729 313.5 738.5Q323 748 336 748Q349 748 359 738.5Q369 729 369 715Q369 702 359 692Q349 682 336 682Q323 682 313.5 692Q304 702 304 715Z" glyph-name="Edieresis" horiz-adv-x="515" unicode="&#203;" /><glyph d="M460 614V567H129V340H429V293H129V47H460V0H79V614ZM308 714Q308 700 298 690Q288 680 274 680Q260 680 250 690Q240 700 240 714Q240 728 250 738Q260 748 274 748Q288 748 298 738Q308 728 308 714Z" glyph-name="Edotaccent" horiz-adv-x="515" unicode="&#278;" /><glyph d="M460 614V567H129V340H429V293H129V47H460V0H79V614ZM250 665 163 782H218L301 665Z" glyph-name="Egrave" horiz-adv-x="515" unicode="&#200;" /><glyph d="M460 614V567H129V340H429V293H129V47H460V0H79V614ZM174 712H375V670H174Z" glyph-name="Emacron" horiz-adv-x="515" unicode="&#274;" /><glyph d="M277 -101Q302 -118 322.5 -124.5Q343 -131 370 -131Q424 -131 456 -97Q488 -63 488 21L128 533V0H79V614H128L488 102V614H537V24Q537 -77 491.5 -128Q446 -179 371 -179Q337 -179 308 -168.5Q279 -158 261 -145Z" glyph-name="Eng" horiz-adv-x="616" unicode="&#330;" /><glyph d="M438 -167Q428 -174 417 -178Q406 -182 393 -182Q368 -182 352 -167Q336 -152 336 -122Q336 -98 348.5 -71Q361 -44 386 0H79V614H460V567H129V340H429V293H129V47H460V0H426Q396 -52 386 -75Q376 -98 376 -117Q376 -131 383 -138Q390 -145 401 -145Q411 -145 419.5 -141.5Q428 -138 438 -131V-167Z" glyph-name="Eogonek" horiz-adv-x="515" unicode="&#280;" /><glyph d="M92 0V295H34V340H92V614H279Q412 614 494.5 530.5Q577 447 577 307Q577 167 494.5 83.5Q412 0 279 0ZM279 47Q392 47 458.5 118.5Q525 190 525 307Q525 424 458.5 495.5Q392 567 279 567H143V340H273V295H143V47Z" glyph-name="Eth" horiz-adv-x="616" unicode="&#208;" /><glyph d="M505 144Q486 75 437 33Q388 -9 318 -9Q234 -9 172 53.5Q110 116 91 225H29V266H87Q86 276 85.5 286.5Q85 297 85 307Q85 316 85 325Q85 334 86 343H29V384H91Q107 495 170 559Q233 623 318 623Q388 623 437 581Q486 539 505 470L460 456Q444 511 408 544Q372 577 318 577Q250 577 203 525Q156 473 142 384H363L354 343H137Q136 334 136 325Q136 316 136 307Q136 297 136.5 286.5Q137 276 138 266H342L333 225H143Q158 138 204.5 87.5Q251 37 318 37Q372 37 408 70Q444 103 460 158L505 144Z" glyph-name="Euro" horiz-adv-x="539" unicode="&#8364;" /><glyph d="M490 144Q472 75 425 33Q378 -9 311 -9Q230 -9 170 53.5Q110 116 93 225H21V266H88Q88 276 87.5 286.5Q87 297 87 307Q87 316 87 325Q87 334 88 343H21V384H92Q108 495 168.5 559Q229 623 311 623Q378 623 425 581Q472 539 490 470L446 456Q431 511 396.5 544Q362 577 310 577Q245 577 201 525Q157 473 144 384H350L341 343H139Q138 334 138 325Q138 316 138 307Q138 297 138.5 286.5Q139 276 139 266H330L320 225H144Q158 138 202.5 87.5Q247 37 310 37Q362 37 396.5 70Q431 103 446 158L490 144Z" glyph-name="Euro.lt" horiz-adv-x="520" /><glyph d="M79 0V614H435V567H130V333H419V287H130V0Z" glyph-name="F" horiz-adv-x="473" unicode="F" /><glyph d="M351 243V288H560V252Q560 133 492.5 62Q425 -9 314 -9Q199 -9 119 76Q39 161 39 307Q39 453 119.5 538Q200 623 313 623Q399 623 458.5 578.5Q518 534 540 461L493 447Q473 506 427.5 540.5Q382 575 313 575Q217 575 154 503Q91 431 91 307Q91 183 154 110.5Q217 38 314 38Q405 38 456 91Q507 144 511 243Z" glyph-name="G" horiz-adv-x="598" unicode="G" /><glyph d="M351 243V288H560V252Q560 133 492.5 62Q425 -9 314 -9Q199 -9 119 76Q39 161 39 307Q39 453 119.5 538Q200 623 313 623Q399 623 458.5 578.5Q518 534 540 461L493 447Q473 506 427.5 540.5Q382 575 313 575Q217 575 154 503Q91 431 91 307Q91 183 154 110.5Q217 38 314 38Q405 38 456 91Q507 144 511 243ZM317 664Q272 664 243 694Q214 724 214 781H254Q254 743 271.5 722.5Q289 702 317 702Q344 702 362 722.5Q380 743 380 781H419Q419 724 390.5 694Q362 664 317 664Z" glyph-name="Gbreve" horiz-adv-x="598" unicode="&#286;" /><glyph d="M351 243V288H560V252Q560 133 492.5 62Q425 -9 314 -9Q199 -9 119 76Q39 161 39 307Q39 453 119.5 538Q200 623 313 623Q399 623 458.5 578.5Q518 534 540 461L493 447Q473 506 427.5 540.5Q382 575 313 575Q217 575 154 503Q91 431 91 307Q91 183 154 110.5Q217 38 314 38Q405 38 456 91Q507 144 511 243ZM430 667H383L316 751L249 667H202L294 786H338Z" glyph-name="Gcircumflex" horiz-adv-x="598" unicode="&#284;" /><glyph d="M351 243V288H560V252Q560 133 492.5 62Q425 -9 314 -9Q199 -9 119 76Q39 161 39 307Q39 453 119.5 538Q200 623 313 623Q399 623 458.5 578.5Q518 534 540 461L493 447Q473 506 427.5 540.5Q382 575 313 575Q217 575 154 503Q91 431 91 307Q91 183 154 110.5Q217 38 314 38Q405 38 456 91Q507 144 511 243ZM315 -116Q303 -114 294 -105.5Q285 -97 285 -82Q285 -67 295.5 -57Q306 -47 322 -47Q337 -47 347 -57.5Q357 -68 357 -84Q357 -96 352.5 -105.5Q348 -115 343 -125L312 -183H279Z" glyph-name="Gcommaaccent" horiz-adv-x="598" unicode="&#290;" /><glyph d="M351 243V288H560V252Q560 133 492.5 62Q425 -9 314 -9Q199 -9 119 76Q39 161 39 307Q39 453 119.5 538Q200 623 313 623Q399 623 458.5 578.5Q518 534 540 461L493 447Q473 506 427.5 540.5Q382 575 313 575Q217 575 154 503Q91 431 91 307Q91 183 154 110.5Q217 38 314 38Q405 38 456 91Q507 144 511 243ZM351 714Q351 700 341 690Q331 680 317 680Q303 680 293 690Q283 700 283 714Q283 728 293 738Q303 748 317 748Q331 748 341 738Q351 728 351 714Z" glyph-name="Gdotaccent" horiz-adv-x="598" unicode="&#288;" /><glyph d="M570 614V0H519V293H130V0H79V614H130V340H519V614Z" glyph-name="H" horiz-adv-x="649" unicode="H" /><glyph d="M532 304V438H143V304ZM143 0H92V438H34V482H92V614H143V482H532V614H583V482H641V438H583V0H532V260H143Z" glyph-name="Hbar" horiz-adv-x="675" unicode="&#294;" /><glyph d="M570 614V0H519V293H130V0H79V614H130V340H519V614ZM439 667H392L325 751L258 667H211L303 786H347Z" glyph-name="Hcircumflex" horiz-adv-x="649" unicode="&#292;" /><glyph d="M130 0H79V614H130Z" glyph-name="I" horiz-adv-x="209" unicode="I" /><glyph d="M130 0H79V614H130ZM250 169Q260 110 297 74.5Q334 39 392 39Q452 39 492 75.5Q532 112 532 195V614H583V195Q583 92 528 41.5Q473 -9 392 -9Q316 -9 263.5 35.5Q211 80 198 154Z" glyph-name="IJ" horiz-adv-x="650" unicode="&#306;" /><glyph d="M130 0H79V614H130ZM74 665 156 782H212L124 665Z" glyph-name="Iacute" horiz-adv-x="209" unicode="&#205;" /><glyph d="M130 0H79V614H130ZM104 664Q59 664 30 694Q1 724 1 781H41Q41 743 58.5 722.5Q76 702 104 702Q131 702 149 722.5Q167 743 167 781H206Q206 724 177.5 694Q149 664 104 664Z" glyph-name="Ibreve" horiz-adv-x="209" unicode="&#300;" /><glyph d="M130 0H79V614H130ZM218 667H171L104 751L37 667H-10L82 786H126Z" glyph-name="Icircumflex" horiz-adv-x="209" unicode="&#206;" /><glyph d="M130 0H79V614H130ZM9 715Q9 729 18.5 738.5Q28 748 42 748Q55 748 64.5 738.5Q74 729 74 715Q74 702 64.5 692Q55 682 42 682Q28 682 18.5 692Q9 702 9 715ZM134 715Q134 729 143.5 738.5Q153 748 166 748Q179 748 189 738.5Q199 729 199 715Q199 702 189 692Q179 682 166 682Q153 682 143.5 692Q134 702 134 715Z" glyph-name="Idieresis" horiz-adv-x="209" unicode="&#207;" /><glyph d="M130 0H79V614H130ZM138 714Q138 700 128 690Q118 680 104 680Q90 680 80 690Q70 700 70 714Q70 728 80 738Q90 748 104 748Q118 748 128 738Q138 728 138 714Z" glyph-name="Idotaccent" horiz-adv-x="209" unicode="&#304;" /><glyph d="M130 0H79V614H130ZM80 665 -7 782H48L131 665Z" glyph-name="Igrave" horiz-adv-x="209" unicode="&#204;" /><glyph d="M130 0H79V614H130ZM4 712H205V670H4Z" glyph-name="Imacron" horiz-adv-x="209" unicode="&#298;" /><glyph d="M130 0Q99 -52 89.5 -75Q80 -98 80 -117Q80 -131 87 -138Q94 -145 105 -145Q115 -145 123.5 -141.5Q132 -138 142 -131V-167Q132 -174 121 -178Q110 -182 97 -182Q72 -182 56 -167Q40 -152 40 -122Q40 -98 52.5 -71Q65 -44 90 0H79V614H130Z" glyph-name="Iogonek" horiz-adv-x="209" unicode="&#302;" /><glyph d="M130 0H79V614H130ZM230 769Q230 722 212.5 693.5Q195 665 161 665Q123 665 101 697Q79 729 51 729Q33 729 24 712.5Q15 696 15 668H-21Q-21 714 -3.5 743Q14 772 48 772Q87 772 108.5 740Q130 708 158 708Q176 708 185 724.5Q194 741 195 769Z" glyph-name="Itilde" horiz-adv-x="209" unicode="&#296;" /><glyph d="M72 169Q82 110 119 74.5Q156 39 214 39Q274 39 314 75.5Q354 112 354 195V614H405V195Q405 92 350 41.5Q295 -9 214 -9Q138 -9 85.5 35.5Q33 80 20 154Z" glyph-name="J" horiz-adv-x="472" unicode="J" /><glyph d="M72 169Q82 110 119 74.5Q156 39 214 39Q274 39 314 75.5Q354 112 354 195V614H405V195Q405 92 350 41.5Q295 -9 214 -9Q138 -9 85.5 35.5Q33 80 20 154ZM495 667H448L381 751L314 667H267L359 786H403Z" glyph-name="Jcircumflex" horiz-adv-x="472" unicode="&#308;" /><glyph d="M130 292 450 614H516L236 334L526 0H462L199 299L130 229V0H79V614H130Z" glyph-name="K" horiz-adv-x="544" unicode="K" /><glyph d="M130 292 450 614H516L236 334L526 0H462L199 299L130 229V0H79V614H130ZM250 -116Q238 -114 229 -105.5Q220 -97 220 -82Q220 -67 230.5 -57Q241 -47 257 -47Q272 -47 282 -57.5Q292 -68 292 -84Q292 -96 287.5 -105.5Q283 -115 278 -125L247 -183H214Z" glyph-name="Kcommaaccent" horiz-adv-x="544" unicode="&#310;" /><glyph d="M79 614H130V47H463V0H79Z" glyph-name="L" horiz-adv-x="503" unicode="L" /><glyph d="M79 614H130V47H463V0H79ZM86 665 168 782H224L136 665Z" glyph-name="Lacute" horiz-adv-x="503" unicode="&#313;" /><glyph d="M79 614H130V47H463V0H79ZM261 454 294 614H334L302 454Z" glyph-name="Lcaron" horiz-adv-x="503" unicode="&#317;" /><glyph d="M79 614H130V47H463V0H79ZM273 -116Q261 -114 252 -105.5Q243 -97 243 -82Q243 -67 253.5 -57Q264 -47 280 -47Q295 -47 305 -57.5Q315 -68 315 -84Q315 -96 310.5 -105.5Q306 -115 301 -125L270 -183H237Z" glyph-name="Lcommaaccent" horiz-adv-x="503" unicode="&#315;" /><glyph d="M79 614H130V47H463V0H79ZM394 307Q394 293 384 283Q374 273 360 273Q346 273 336 283Q326 293 326 307Q326 320 336 330.5Q346 341 360 341Q374 341 384 330.5Q394 320 394 307Z" glyph-name="Ldot" horiz-adv-x="503" unicode="&#319;" /><glyph d="M91 0V271L30 246V295L91 319V614H142V339L299 402V353L142 290V47H475V0Z" glyph-name="Lslash" horiz-adv-x="515" unicode="&#321;" /><glyph d="M349 0 128 513V0H79V614H135L366 75L597 614H650V0H601V513L381 0Z" glyph-name="M" horiz-adv-x="729" unicode="M" /><glyph d="M537 0H503L128 533V0H79V614H128L488 102V614H537Z" glyph-name="N" horiz-adv-x="616" unicode="N" /><glyph d="M537 0H503L128 533V0H79V614H128L488 102V614H537ZM278 665 360 782H416L328 665Z" glyph-name="Nacute" horiz-adv-x="616" unicode="&#323;" /><glyph d="M537 0H503L128 533V0H79V614H128L488 102V614H537ZM194 779H241L308 696L375 779H422L330 660H286Z" glyph-name="Ncaron" horiz-adv-x="616" unicode="&#327;" /><glyph d="M537 0H503L128 533V0H79V614H128L488 102V614H537ZM306 -116Q294 -114 285 -105.5Q276 -97 276 -82Q276 -67 286.5 -57Q297 -47 313 -47Q328 -47 338 -57.5Q348 -68 348 -84Q348 -96 343.5 -105.5Q339 -115 334 -125L303 -183H270Z" glyph-name="Ncommaaccent" horiz-adv-x="616" unicode="&#325;" /><glyph d="M537 0H503L128 533V0H79V614H128L488 102V614H537ZM433 769Q433 722 415.5 693.5Q398 665 364 665Q326 665 304 697Q282 729 254 729Q236 729 227 712.5Q218 696 218 668H182Q182 714 199.5 743Q217 772 251 772Q290 772 311.5 740Q333 708 361 708Q379 708 388 724.5Q397 741 398 769Z" glyph-name="Ntilde" horiz-adv-x="616" unicode="&#209;" /><glyph d="M582 307Q582 167 504.5 79Q427 -9 310 -9Q194 -9 116.5 79Q39 167 39 307Q39 447 116.5 535Q194 623 310 623Q427 623 504.5 535Q582 447 582 307ZM530 307Q530 425 469 500Q408 575 310 575Q213 575 152 500Q91 425 91 307Q91 189 152 114Q213 39 310 39Q408 39 469 114Q530 189 530 307Z" glyph-name="O" horiz-adv-x="620" unicode="O" /><glyph d="M784 567H467V340H753V293H467V47H784V0H337Q204 0 121.5 83.5Q39 167 39 307Q39 447 121.5 530.5Q204 614 337 614H784ZM416 47V567H336Q224 567 157 495.5Q90 424 90 307Q90 190 157 118.5Q224 47 336 47Z" glyph-name="OE" horiz-adv-x="840" unicode="&#338;" /><glyph d="M582 307Q582 167 504.5 79Q427 -9 310 -9Q194 -9 116.5 79Q39 167 39 307Q39 447 116.5 535Q194 623 310 623Q427 623 504.5 535Q582 447 582 307ZM530 307Q530 425 469 500Q408 575 310 575Q213 575 152 500Q91 425 91 307Q91 189 152 114Q213 39 310 39Q408 39 469 114Q530 189 530 307ZM280 665 362 782H418L330 665Z" glyph-name="Oacute" horiz-adv-x="620" unicode="&#211;" /><glyph d="M582 307Q582 167 504.5 79Q427 -9 310 -9Q194 -9 116.5 79Q39 167 39 307Q39 447 116.5 535Q194 623 310 623Q427 623 504.5 535Q582 447 582 307ZM530 307Q530 425 469 500Q408 575 310 575Q213 575 152 500Q91 425 91 307Q91 189 152 114Q213 39 310 39Q408 39 469 114Q530 189 530 307ZM310 664Q265 664 236 694Q207 724 207 781H247Q247 743 264.5 722.5Q282 702 310 702Q337 702 355 722.5Q373 743 373 781H412Q412 724 383.5 694Q355 664 310 664Z" glyph-name="Obreve" horiz-adv-x="620" unicode="&#334;" /><glyph d="M582 307Q582 167 504.5 79Q427 -9 310 -9Q194 -9 116.5 79Q39 167 39 307Q39 447 116.5 535Q194 623 310 623Q427 623 504.5 535Q582 447 582 307ZM530 307Q530 425 469 500Q408 575 310 575Q213 575 152 500Q91 425 91 307Q91 189 152 114Q213 39 310 39Q408 39 469 114Q530 189 530 307ZM424 667H377L310 751L243 667H196L288 786H332Z" glyph-name="Ocircumflex" horiz-adv-x="620" unicode="&#212;" /><glyph d="M582 307Q582 167 504.5 79Q427 -9 310 -9Q194 -9 116.5 79Q39 167 39 307Q39 447 116.5 535Q194 623 310 623Q427 623 504.5 535Q582 447 582 307ZM530 307Q530 425 469 500Q408 575 310 575Q213 575 152 500Q91 425 91 307Q91 189 152 114Q213 39 310 39Q408 39 469 114Q530 189 530 307ZM215 715Q215 729 224.5 738.5Q234 748 248 748Q261 748 270.5 738.5Q280 729 280 715Q280 702 270.5 692Q261 682 248 682Q234 682 224.5 692Q215 702 215 715ZM340 715Q340 729 349.5 738.5Q359 748 372 748Q385 748 395 738.5Q405 729 405 715Q405 702 395 692Q385 682 372 682Q359 682 349.5 692Q340 702 340 715Z" glyph-name="Odieresis" horiz-adv-x="620" unicode="&#214;" /><glyph d="M582 307Q582 167 504.5 79Q427 -9 310 -9Q194 -9 116.5 79Q39 167 39 307Q39 447 116.5 535Q194 623 310 623Q427 623 504.5 535Q582 447 582 307ZM530 307Q530 425 469 500Q408 575 310 575Q213 575 152 500Q91 425 91 307Q91 189 152 114Q213 39 310 39Q408 39 469 114Q530 189 530 307ZM286 665 199 782H254L337 665Z" glyph-name="Ograve" horiz-adv-x="620" unicode="&#210;" /><glyph d="M582 307Q582 167 504.5 79Q427 -9 310 -9Q194 -9 116.5 79Q39 167 39 307Q39 447 116.5 535Q194 623 310 623Q427 623 504.5 535Q582 447 582 307ZM530 307Q530 425 469 500Q408 575 310 575Q213 575 152 500Q91 425 91 307Q91 189 152 114Q213 39 310 39Q408 39 469 114Q530 189 530 307ZM234 665 308 782H354L279 665ZM345 665 419 782H465L391 665Z" glyph-name="Ohungarumlaut" horiz-adv-x="620" unicode="&#336;" /><glyph d="M582 307Q582 167 504.5 79Q427 -9 310 -9Q194 -9 116.5 79Q39 167 39 307Q39 447 116.5 535Q194 623 310 623Q427 623 504.5 535Q582 447 582 307ZM530 307Q530 425 469 500Q408 575 310 575Q213 575 152 500Q91 425 91 307Q91 189 152 114Q213 39 310 39Q408 39 469 114Q530 189 530 307ZM210 712H411V670H210Z" glyph-name="Omacron" horiz-adv-x="620" unicode="&#332;" /><glyph d="M96 307Q96 253 109 206.5Q122 160 146 126L462 516Q434 544 397 559.5Q360 575 315 575Q218 575 157 500Q96 425 96 307ZM315 39Q413 39 474 114Q535 189 535 307Q535 360 522.5 405Q510 450 487 484L172 95Q200 68 236 53.5Q272 39 315 39ZM315 -9Q265 -9 220.5 8.5Q176 26 142 57L82 -17L50 7L114 87Q81 127 62.5 183.5Q44 240 44 307Q44 447 121.5 535Q199 623 315 623Q366 623 412 605Q458 587 492 554L544 618L576 594L519 524Q551 483 569 428Q587 373 587 307Q587 167 509.5 79Q432 -9 315 -9Z" glyph-name="Oslash" horiz-adv-x="630" unicode="&#216;" /><glyph d="M96 307Q96 253 109 206.5Q122 160 146 126L462 516Q434 544 397 559.5Q360 575 315 575Q218 575 157 500Q96 425 96 307ZM315 39Q413 39 474 114Q535 189 535 307Q535 360 522.5 405Q510 450 487 484L172 95Q200 68 236 53.5Q272 39 315 39ZM315 -9Q265 -9 220.5 8.5Q176 26 142 57L82 -17L50 7L114 87Q81 127 62.5 183.5Q44 240 44 307Q44 447 121.5 535Q199 623 315 623Q366 623 412 605Q458 587 492 554L544 618L576 594L519 524Q551 483 569 428Q587 373 587 307Q587 167 509.5 79Q432 -9 315 -9ZM285 665 367 782H423L335 665Z" glyph-name="Oslashacute" horiz-adv-x="630" unicode="&#510;" /><glyph d="M582 307Q582 167 504.5 79Q427 -9 310 -9Q194 -9 116.5 79Q39 167 39 307Q39 447 116.5 535Q194 623 310 623Q427 623 504.5 535Q582 447 582 307ZM530 307Q530 425 469 500Q408 575 310 575Q213 575 152 500Q91 425 91 307Q91 189 152 114Q213 39 310 39Q408 39 469 114Q530 189 530 307ZM436 769Q436 722 418.5 693.5Q401 665 367 665Q329 665 307 697Q285 729 257 729Q239 729 230 712.5Q221 696 221 668H185Q185 714 202.5 743Q220 772 254 772Q293 772 314.5 740Q336 708 364 708Q382 708 391 724.5Q400 741 401 769Z" glyph-name="Otilde" horiz-adv-x="620" unicode="&#213;" /><glyph d="M130 265V0H79V614H301Q391 614 443 569.5Q495 525 495 440Q495 354 443 309.5Q391 265 301 265ZM299 312Q370 312 407 346Q444 380 444 440Q444 500 407 534Q370 568 299 568H130V312Z" glyph-name="P" horiz-adv-x="529" unicode="P" /><glyph d="M394 -100V4Q375 -3 354 -6Q333 -9 311 -9Q194 -9 116.5 79Q39 167 39 307Q39 447 116.5 535Q194 623 311 623Q428 623 505.5 535Q583 447 583 307Q583 208 543.5 134Q504 60 438 23V-100ZM311 38Q333 38 354 42Q375 46 394 53V205H438V78Q482 112 506.5 170.5Q531 229 531 307Q531 425 470 500Q409 575 311 575Q214 575 152.5 500Q91 425 91 307Q91 189 152.5 113.5Q214 38 311 38Z" glyph-name="Q" horiz-adv-x="622" unicode="Q" /><glyph d="M130 316H294Q364 316 401.5 349.5Q439 383 439 442Q439 502 401.5 535Q364 568 294 568H130ZM79 614H296Q386 614 437.5 570Q489 526 489 442Q489 367 447.5 324Q406 281 333 273L518 0H459L277 271H130V0H79Z" glyph-name="R" horiz-adv-x="549" unicode="R" /><glyph d="M130 316H294Q364 316 401.5 349.5Q439 383 439 442Q439 502 401.5 535Q364 568 294 568H130ZM79 614H296Q386 614 437.5 570Q489 526 489 442Q489 367 447.5 324Q406 281 333 273L518 0H459L277 271H130V0H79ZM234 665 316 782H372L284 665Z" glyph-name="Racute" horiz-adv-x="549" unicode="&#340;" /><glyph d="M130 316H294Q364 316 401.5 349.5Q439 383 439 442Q439 502 401.5 535Q364 568 294 568H130ZM79 614H296Q386 614 437.5 570Q489 526 489 442Q489 367 447.5 324Q406 281 333 273L518 0H459L277 271H130V0H79ZM150 779H197L264 696L331 779H378L286 660H242Z" glyph-name="Rcaron" horiz-adv-x="549" unicode="&#344;" /><glyph d="M130 316H294Q364 316 401.5 349.5Q439 383 439 442Q439 502 401.5 535Q364 568 294 568H130ZM79 614H296Q386 614 437.5 570Q489 526 489 442Q489 367 447.5 324Q406 281 333 273L518 0H459L277 271H130V0H79ZM263 -116Q251 -114 242 -105.5Q233 -97 233 -82Q233 -67 243.5 -57Q254 -47 270 -47Q285 -47 295 -57.5Q305 -68 305 -84Q305 -96 300.5 -105.5Q296 -115 291 -125L260 -183H227Z" glyph-name="Rcommaaccent" horiz-adv-x="549" unicode="&#342;" /><glyph d="M74 149Q93 95 139 66Q185 37 248 37Q314 37 359.5 70Q405 103 405 160Q405 200 381.5 229Q358 258 300 274L184 307Q121 325 83 358Q45 391 45 457Q45 535 103 579Q161 623 241 623Q325 623 378 584.5Q431 546 451 483L404 469Q387 518 347 547.5Q307 577 241 577Q181 577 137.5 546Q94 515 94 459Q94 410 124 388.5Q154 367 208 351L311 321Q386 300 420.5 261Q455 222 455 162Q455 83 395 37Q335 -9 248 -9Q168 -9 107.5 28Q47 65 26 134Z" glyph-name="S" horiz-adv-x="497" unicode="S" /><glyph d="M74 149Q93 95 139 66Q185 37 248 37Q314 37 359.5 70Q405 103 405 160Q405 200 381.5 229Q358 258 300 274L184 307Q121 325 83 358Q45 391 45 457Q45 535 103 579Q161 623 241 623Q325 623 378 584.5Q431 546 451 483L404 469Q387 518 347 547.5Q307 577 241 577Q181 577 137.5 546Q94 515 94 459Q94 410 124 388.5Q154 367 208 351L311 321Q386 300 420.5 261Q455 222 455 162Q455 83 395 37Q335 -9 248 -9Q168 -9 107.5 28Q47 65 26 134ZM210 665 292 782H348L260 665Z" glyph-name="Sacute" horiz-adv-x="497" unicode="&#346;" /><glyph d="M74 149Q93 95 139 66Q185 37 248 37Q314 37 359.5 70Q405 103 405 160Q405 200 381.5 229Q358 258 300 274L184 307Q121 325 83 358Q45 391 45 457Q45 535 103 579Q161 623 241 623Q325 623 378 584.5Q431 546 451 483L404 469Q387 518 347 547.5Q307 577 241 577Q181 577 137.5 546Q94 515 94 459Q94 410 124 388.5Q154 367 208 351L311 321Q386 300 420.5 261Q455 222 455 162Q455 83 395 37Q335 -9 248 -9Q168 -9 107.5 28Q47 65 26 134ZM128 779H175L242 696L309 779H356L264 660H220Z" glyph-name="Scaron" horiz-adv-x="497" unicode="&#352;" /><glyph d="M74 149Q93 95 139 66Q185 37 248 37Q314 37 359.5 70Q405 103 405 160Q405 200 381.5 229Q358 258 300 274L184 307Q121 325 83 358Q45 391 45 457Q45 535 103 579Q161 623 241 623Q325 623 378 584.5Q431 546 451 483L404 469Q387 518 347 547.5Q307 577 241 577Q181 577 137.5 546Q94 515 94 459Q94 410 124 388.5Q154 367 208 351L311 321Q386 300 420.5 261Q455 222 455 162Q455 83 395 37Q335 -9 248 -9Q168 -9 107.5 28Q47 65 26 134ZM159 -175 218 -48H266L205 -175Z" glyph-name="Scedilla" horiz-adv-x="497" unicode="&#350;" /><glyph d="M74 149Q93 95 139 66Q185 37 248 37Q314 37 359.5 70Q405 103 405 160Q405 200 381.5 229Q358 258 300 274L184 307Q121 325 83 358Q45 391 45 457Q45 535 103 579Q161 623 241 623Q325 623 378 584.5Q431 546 451 483L404 469Q387 518 347 547.5Q307 577 241 577Q181 577 137.5 546Q94 515 94 459Q94 410 124 388.5Q154 367 208 351L311 321Q386 300 420.5 261Q455 222 455 162Q455 83 395 37Q335 -9 248 -9Q168 -9 107.5 28Q47 65 26 134ZM356 667H309L242 751L175 667H128L220 786H264Z" glyph-name="Scircumflex" horiz-adv-x="497" unicode="&#348;" /><glyph d="M74 149Q93 95 139 66Q185 37 248 37Q314 37 359.5 70Q405 103 405 160Q405 200 381.5 229Q358 258 300 274L184 307Q121 325 83 358Q45 391 45 457Q45 535 103 579Q161 623 241 623Q325 623 378 584.5Q431 546 451 483L404 469Q387 518 347 547.5Q307 577 241 577Q181 577 137.5 546Q94 515 94 459Q94 410 124 388.5Q154 367 208 351L311 321Q386 300 420.5 261Q455 222 455 162Q455 83 395 37Q335 -9 248 -9Q168 -9 107.5 28Q47 65 26 134ZM239 -116Q227 -114 218 -105.5Q209 -97 209 -82Q209 -67 219.5 -57Q230 -47 246 -47Q261 -47 271 -57.5Q281 -68 281 -84Q281 -96 276.5 -105.5Q272 -115 267 -125L236 -183H203Z" glyph-name="Scommaaccent" horiz-adv-x="497" unicode="&#536;" /><glyph d="M31 614H531V567H306V0H255V567H31Z" glyph-name="T" horiz-adv-x="562" unicode="T" /><glyph d="M306 295V0H255V295H138V340H255V567H31V614H531V567H306V340H423V295Z" glyph-name="Tbar" horiz-adv-x="562" unicode="&#358;" /><glyph d="M31 614H531V567H306V0H255V567H31ZM167 779H214L281 696L348 779H395L303 660H259Z" glyph-name="Tcaron" horiz-adv-x="562" unicode="&#356;" /><glyph d="M31 614H531V567H306V0H255V567H31ZM280 -116Q268 -114 259 -105.5Q250 -97 250 -82Q250 -67 260.5 -57Q271 -47 287 -47Q302 -47 312 -57.5Q322 -68 322 -84Q322 -96 317.5 -105.5Q313 -115 308 -125L277 -183H244Z" glyph-name="Tcommaaccent" horiz-adv-x="562" unicode="&#354;" /><glyph d="M130 140V0H79V614H130V489H301Q391 489 443 444.5Q495 400 495 315Q495 229 443 184.5Q391 140 301 140ZM299 187Q370 187 407 221Q444 255 444 315Q444 375 407 409Q370 443 299 443H130V187Z" glyph-name="Thorn" horiz-adv-x="529" unicode="&#222;" /><glyph d="M302 -9Q203 -9 135 53.5Q67 116 67 242V614H118V249Q118 142 170.5 90Q223 38 302 38Q381 38 434 90Q487 142 487 249V614H538V242Q538 116 469.5 53.5Q401 -9 302 -9Z" glyph-name="U" horiz-adv-x="605" unicode="U" /><glyph d="M302 -9Q203 -9 135 53.5Q67 116 67 242V614H118V249Q118 142 170.5 90Q223 38 302 38Q381 38 434 90Q487 142 487 249V614H538V242Q538 116 469.5 53.5Q401 -9 302 -9ZM272 665 354 782H410L322 665Z" glyph-name="Uacute" horiz-adv-x="605" unicode="&#218;" /><glyph d="M302 -9Q203 -9 135 53.5Q67 116 67 242V614H118V249Q118 142 170.5 90Q223 38 302 38Q381 38 434 90Q487 142 487 249V614H538V242Q538 116 469.5 53.5Q401 -9 302 -9ZM303 664Q258 664 229 694Q200 724 200 781H240Q240 743 257.5 722.5Q275 702 303 702Q330 702 348 722.5Q366 743 366 781H405Q405 724 376.5 694Q348 664 303 664Z" glyph-name="Ubreve" horiz-adv-x="605" unicode="&#364;" /><glyph d="M302 -9Q203 -9 135 53.5Q67 116 67 242V614H118V249Q118 142 170.5 90Q223 38 302 38Q381 38 434 90Q487 142 487 249V614H538V242Q538 116 469.5 53.5Q401 -9 302 -9ZM417 667H370L303 751L236 667H189L281 786H325Z" glyph-name="Ucircumflex" horiz-adv-x="605" unicode="&#219;" /><glyph d="M302 -9Q203 -9 135 53.5Q67 116 67 242V614H118V249Q118 142 170.5 90Q223 38 302 38Q381 38 434 90Q487 142 487 249V614H538V242Q538 116 469.5 53.5Q401 -9 302 -9ZM208 715Q208 729 217.5 738.5Q227 748 241 748Q254 748 263.5 738.5Q273 729 273 715Q273 702 263.5 692Q254 682 241 682Q227 682 217.5 692Q208 702 208 715ZM333 715Q333 729 342.5 738.5Q352 748 365 748Q378 748 388 738.5Q398 729 398 715Q398 702 388 692Q378 682 365 682Q352 682 342.5 692Q333 702 333 715Z" glyph-name="Udieresis" horiz-adv-x="605" unicode="&#220;" /><glyph d="M302 -9Q203 -9 135 53.5Q67 116 67 242V614H118V249Q118 142 170.5 90Q223 38 302 38Q381 38 434 90Q487 142 487 249V614H538V242Q538 116 469.5 53.5Q401 -9 302 -9ZM278 665 191 782H246L329 665Z" glyph-name="Ugrave" horiz-adv-x="605" unicode="&#217;" /><glyph d="M302 -9Q203 -9 135 53.5Q67 116 67 242V614H118V249Q118 142 170.5 90Q223 38 302 38Q381 38 434 90Q487 142 487 249V614H538V242Q538 116 469.5 53.5Q401 -9 302 -9ZM227 665 301 782H347L272 665ZM338 665 412 782H458L384 665Z" glyph-name="Uhungarumlaut" horiz-adv-x="605" unicode="&#368;" /><glyph d="M302 -9Q203 -9 135 53.5Q67 116 67 242V614H118V249Q118 142 170.5 90Q223 38 302 38Q381 38 434 90Q487 142 487 249V614H538V242Q538 116 469.5 53.5Q401 -9 302 -9ZM203 712H404V670H203Z" glyph-name="Umacron" horiz-adv-x="605" unicode="&#362;" /><glyph d="M302 -9Q203 -9 135 53.5Q67 116 67 242V614H118V249Q118 142 170.5 90Q223 38 302 38Q381 38 434 90Q487 142 487 249V614H538V242Q538 158 507.5 107Q477 56 428 21Q377 -16 357.5 -51.5Q338 -87 338 -115Q338 -129 345 -137Q352 -145 362 -145Q373 -145 381 -141.5Q389 -138 399 -131V-167Q389 -174 378.5 -178Q368 -182 355 -182Q330 -182 313.5 -166Q297 -150 297 -121Q297 -93 312 -62Q327 -31 358 -2Q346 -5 330.5 -7Q315 -9 302 -9Z" glyph-name="Uogonek" horiz-adv-x="605" unicode="&#370;" /><glyph d="M302 -9Q203 -9 135 53.5Q67 116 67 242V614H118V249Q118 142 170.5 90Q223 38 302 38Q381 38 434 90Q487 142 487 249V614H538V242Q538 116 469.5 53.5Q401 -9 302 -9ZM384 728Q384 694 360.5 671Q337 648 303 648Q269 648 245.5 671Q222 694 222 728Q222 762 245.5 785.5Q269 809 303 809Q337 809 360.5 785.5Q384 762 384 728ZM352 728Q352 749 337.5 763.5Q323 778 303 778Q283 778 268.5 763.5Q254 749 254 728Q254 708 268.5 693.5Q283 679 303 679Q323 679 337.5 693.5Q352 708 352 728Z" glyph-name="Uring" horiz-adv-x="605" unicode="&#366;" /><glyph d="M302 -9Q203 -9 135 53.5Q67 116 67 242V614H118V249Q118 142 170.5 90Q223 38 302 38Q381 38 434 90Q487 142 487 249V614H538V242Q538 116 469.5 53.5Q401 -9 302 -9ZM428 769Q428 722 410.5 693.5Q393 665 359 665Q321 665 299 697Q277 729 249 729Q231 729 222 712.5Q213 696 213 668H177Q177 714 194.5 743Q212 772 246 772Q285 772 306.5 740Q328 708 356 708Q374 708 383 724.5Q392 741 393 769Z" glyph-name="Utilde" horiz-adv-x="605" unicode="&#360;" /><glyph d="M265 0 23 614H76L288 70L502 614H554L311 0Z" glyph-name="V" horiz-adv-x="577" unicode="V" /><glyph d="M401 614 545 86 687 614H737L570 0H524L379 523L235 0H190L22 614H73L215 86L359 614Z" glyph-name="W" horiz-adv-x="759" unicode="W" /><glyph d="M401 614 545 86 687 614H737L570 0H524L379 523L235 0H190L22 614H73L215 86L359 614ZM351 665 433 782H489L401 665Z" glyph-name="Wacute" horiz-adv-x="759" unicode="&#7810;" /><glyph d="M401 614 545 86 687 614H737L570 0H524L379 523L235 0H190L22 614H73L215 86L359 614ZM493 667H446L379 751L312 667H265L357 786H401Z" glyph-name="Wcircumflex" horiz-adv-x="759" unicode="&#372;" /><glyph d="M401 614 545 86 687 614H737L570 0H524L379 523L235 0H190L22 614H73L215 86L359 614ZM284 715Q284 729 293.5 738.5Q303 748 317 748Q330 748 339.5 738.5Q349 729 349 715Q349 702 339.5 692Q330 682 317 682Q303 682 293.5 692Q284 702 284 715ZM409 715Q409 729 418.5 738.5Q428 748 441 748Q454 748 464 738.5Q474 729 474 715Q474 702 464 692Q454 682 441 682Q428 682 418.5 692Q409 702 409 715Z" glyph-name="Wdieresis" horiz-adv-x="759" unicode="&#7812;" /><glyph d="M401 614 545 86 687 614H737L570 0H524L379 523L235 0H190L22 614H73L215 86L359 614ZM354 665 267 782H322L405 665Z" glyph-name="Wgrave" horiz-adv-x="759" unicode="&#7808;" /><glyph d="M299 312 517 0H459L269 271L80 0H24L241 311L30 614H88L270 352L453 614H509Z" glyph-name="X" horiz-adv-x="540" unicode="X" /><glyph d="M462 614H517L293 262V0H242V262L19 614H75L269 309Z" glyph-name="Y" horiz-adv-x="535" unicode="Y" /><glyph d="M462 614H517L293 262V0H242V262L19 614H75L269 309ZM237 665 319 782H375L287 665Z" glyph-name="Yacute" horiz-adv-x="535" unicode="&#221;" /><glyph d="M462 614H517L293 262V0H242V262L19 614H75L269 309ZM381 667H334L267 751L200 667H153L245 786H289Z" glyph-name="Ycircumflex" horiz-adv-x="535" unicode="&#374;" /><glyph d="M462 614H517L293 262V0H242V262L19 614H75L269 309ZM173 715Q173 729 182.5 738.5Q192 748 206 748Q219 748 228.5 738.5Q238 729 238 715Q238 702 228.5 692Q219 682 206 682Q192 682 182.5 692Q173 702 173 715ZM298 715Q298 729 307.5 738.5Q317 748 330 748Q343 748 353 738.5Q363 729 363 715Q363 702 353 692Q343 682 330 682Q317 682 307.5 692Q298 702 298 715Z" glyph-name="Ydieresis" horiz-adv-x="535" unicode="&#376;" /><glyph d="M462 614H517L293 262V0H242V262L19 614H75L269 309ZM243 665 156 782H211L294 665Z" glyph-name="Ygrave" horiz-adv-x="535" unicode="&#7922;" /><glyph d="M479 0H37V39L412 567H42V614H475V575L101 47H479Z" glyph-name="Z" horiz-adv-x="519" unicode="Z" /><glyph d="M479 0H37V39L412 567H42V614H475V575L101 47H479ZM248 665 330 782H386L298 665Z" glyph-name="Zacute" horiz-adv-x="519" unicode="&#377;" /><glyph d="M479 0H37V39L412 567H42V614H475V575L101 47H479ZM164 779H211L278 696L345 779H392L300 660H256Z" glyph-name="Zcaron" horiz-adv-x="519" unicode="&#381;" /><glyph d="M479 0H37V39L412 567H42V614H475V575L101 47H479ZM312 714Q312 700 302 690Q292 680 278 680Q264 680 254 690Q244 700 244 714Q244 728 254 738Q264 748 278 748Q292 748 302 738Q312 728 312 714Z" glyph-name="Zdotaccent" horiz-adv-x="519" unicode="&#379;" /><glyph d="M325 158Q315 186 281 205Q247 224 207 224Q160 224 122.5 200.5Q85 177 85 130Q85 83 122.5 59Q160 35 207 35Q247 35 281 54Q315 73 325 101ZM325 0V42Q311 25 277 9Q243 -7 202 -7Q135 -7 86.5 30Q38 67 38 130Q38 191 86.5 228.5Q135 266 204 266Q243 266 276.5 250.5Q310 235 325 219V298Q325 347 296.5 378Q268 409 214 409Q173 409 144 390.5Q115 372 102 333L58 346Q75 397 117.5 425Q160 453 215 453Q288 453 330.5 411Q373 369 373 300V0Z" glyph-name="a" horiz-adv-x="439" unicode="a" /><glyph d="M325 158Q315 186 281 205Q247 224 207 224Q160 224 122.5 200.5Q85 177 85 130Q85 83 122.5 59Q160 35 207 35Q247 35 281 54Q315 73 325 101ZM325 0V42Q311 25 277 9Q243 -7 202 -7Q135 -7 86.5 30Q38 67 38 130Q38 191 86.5 228.5Q135 266 204 266Q243 266 276.5 250.5Q310 235 325 219V298Q325 347 296.5 378Q268 409 214 409Q173 409 144 390.5Q115 372 102 333L58 346Q75 397 117.5 425Q160 453 215 453Q288 453 330.5 411Q373 369 373 300V0ZM194 520 277 650H330L243 520Z" glyph-name="aacute" horiz-adv-x="439" unicode="&#225;" /><glyph d="M325 158Q315 186 281 205Q247 224 207 224Q160 224 122.5 200.5Q85 177 85 130Q85 83 122.5 59Q160 35 207 35Q247 35 281 54Q315 73 325 101ZM325 0V42Q311 25 277 9Q243 -7 202 -7Q135 -7 86.5 30Q38 67 38 130Q38 191 86.5 228.5Q135 266 204 266Q243 266 276.5 250.5Q310 235 325 219V298Q325 347 296.5 378Q268 409 214 409Q173 409 144 390.5Q115 372 102 333L58 346Q75 397 117.5 425Q160 453 215 453Q288 453 330.5 411Q373 369 373 300V0ZM221 506Q177 506 148 537Q119 568 119 626H159Q159 587 176 565Q193 543 221 543Q249 543 266 565Q283 587 283 626H323Q323 568 294 537Q265 506 221 506Z" glyph-name="abreve" horiz-adv-x="439" unicode="&#259;" /><glyph d="M325 158Q315 186 281 205Q247 224 207 224Q160 224 122.5 200.5Q85 177 85 130Q85 83 122.5 59Q160 35 207 35Q247 35 281 54Q315 73 325 101ZM325 0V42Q311 25 277 9Q243 -7 202 -7Q135 -7 86.5 30Q38 67 38 130Q38 191 86.5 228.5Q135 266 204 266Q243 266 276.5 250.5Q310 235 325 219V298Q325 347 296.5 378Q268 409 214 409Q173 409 144 390.5Q115 372 102 333L58 346Q75 397 117.5 425Q160 453 215 453Q288 453 330.5 411Q373 369 373 300V0ZM337 513H291L223 610L155 513H109L201 644H245Z" glyph-name="acircumflex" horiz-adv-x="439" unicode="&#226;" /><glyph d="M182 520 265 650H318L231 520Z" glyph-name="acute" horiz-adv-x="500" unicode="&#180;" /><glyph d="M181 665 263 782H319L231 665Z" glyph-name="acute.cap" horiz-adv-x="500" /><glyph d="M325 158Q315 186 281 205Q247 224 207 224Q160 224 122.5 200.5Q85 177 85 130Q85 83 122.5 59Q160 35 207 35Q247 35 281 54Q315 73 325 101ZM325 0V42Q311 25 277 9Q243 -7 202 -7Q135 -7 86.5 30Q38 67 38 130Q38 191 86.5 228.5Q135 266 204 266Q243 266 276.5 250.5Q310 235 325 219V298Q325 347 296.5 378Q268 409 214 409Q173 409 144 390.5Q115 372 102 333L58 346Q75 397 117.5 425Q160 453 215 453Q288 453 330.5 411Q373 369 373 300V0ZM128 571Q128 584 137.5 593.5Q147 603 161 603Q174 603 183.5 593.5Q193 584 193 571Q193 557 183.5 547.5Q174 538 161 538Q147 538 137.5 547.5Q128 557 128 571ZM253 571Q253 584 262.5 593.5Q272 603 285 603Q298 603 308 593.5Q318 584 318 571Q318 557 308 547.5Q298 538 285 538Q272 538 262.5 547.5Q253 557 253 571Z" glyph-name="adieresis" horiz-adv-x="439" unicode="&#228;" /><glyph d="M215 409Q174 409 145 390.5Q116 372 103 333L58 346Q75 397 117.5 425Q160 453 215 453Q272 453 309.5 426Q347 399 360 354Q384 397 423.5 425Q463 453 517 453Q605 453 651 391.5Q697 330 697 236V218H370Q371 132 412.5 83.5Q454 35 518 35Q565 35 598.5 60Q632 85 644 128L687 115Q671 59 627.5 25Q584 -9 518 -9Q463 -9 419.5 19Q376 47 352 95Q331 57 291 25Q251 -7 190 -7Q125 -7 81.5 28.5Q38 64 38 124Q38 186 86.5 222Q135 258 204 258H325V298Q325 347 296.5 378Q268 409 215 409ZM517 409Q457 409 418 367.5Q379 326 372 257H647Q646 315 614.5 362Q583 409 517 409ZM192 35Q244 35 278 65.5Q312 96 325 138V217H207Q159 217 122 194.5Q85 172 85 126Q85 80 116.5 57.5Q148 35 192 35Z" glyph-name="ae" horiz-adv-x="735" unicode="&#230;" /><glyph d="M215 409Q174 409 145 390.5Q116 372 103 333L58 346Q75 397 117.5 425Q160 453 215 453Q272 453 309.5 426Q347 399 360 354Q384 397 423.5 425Q463 453 517 453Q605 453 651 391.5Q697 330 697 236V218H370Q371 132 412.5 83.5Q454 35 518 35Q565 35 598.5 60Q632 85 644 128L687 115Q671 59 627.5 25Q584 -9 518 -9Q463 -9 419.5 19Q376 47 352 95Q331 57 291 25Q251 -7 190 -7Q125 -7 81.5 28.5Q38 64 38 124Q38 186 86.5 222Q135 258 204 258H325V298Q325 347 296.5 378Q268 409 215 409ZM517 409Q457 409 418 367.5Q379 326 372 257H647Q646 315 614.5 362Q583 409 517 409ZM192 35Q244 35 278 65.5Q312 96 325 138V217H207Q159 217 122 194.5Q85 172 85 126Q85 80 116.5 57.5Q148 35 192 35ZM351 520 434 650H487L400 520Z" glyph-name="aeacute" horiz-adv-x="735" unicode="&#509;" /><glyph d="M325 158Q315 186 281 205Q247 224 207 224Q160 224 122.5 200.5Q85 177 85 130Q85 83 122.5 59Q160 35 207 35Q247 35 281 54Q315 73 325 101ZM325 0V42Q311 25 277 9Q243 -7 202 -7Q135 -7 86.5 30Q38 67 38 130Q38 191 86.5 228.5Q135 266 204 266Q243 266 276.5 250.5Q310 235 325 219V298Q325 347 296.5 378Q268 409 214 409Q173 409 144 390.5Q115 372 102 333L58 346Q75 397 117.5 425Q160 453 215 453Q288 453 330.5 411Q373 369 373 300V0ZM204 520 117 650H170L253 520Z" glyph-name="agrave" horiz-adv-x="439" unicode="&#224;" /><glyph d="M325 158Q315 186 281 205Q247 224 207 224Q160 224 122.5 200.5Q85 177 85 130Q85 83 122.5 59Q160 35 207 35Q247 35 281 54Q315 73 325 101ZM325 0V42Q311 25 277 9Q243 -7 202 -7Q135 -7 86.5 30Q38 67 38 130Q38 191 86.5 228.5Q135 266 204 266Q243 266 276.5 250.5Q310 235 325 219V298Q325 347 296.5 378Q268 409 214 409Q173 409 144 390.5Q115 372 102 333L58 346Q75 397 117.5 425Q160 453 215 453Q288 453 330.5 411Q373 369 373 300V0ZM123 578H324V537H123Z" glyph-name="amacron" horiz-adv-x="439" unicode="&#257;" /><glyph d="M150 475Q150 437 169.5 408.5Q189 380 217 351Q295 378 324.5 409Q354 440 354 483Q354 525 328 553Q302 581 254 581Q210 581 180 553Q150 525 150 475ZM236 35Q286 35 325 53.5Q364 72 392 103L199 304Q157 287 124 255Q91 223 91 169Q91 109 132.5 72Q174 35 236 35ZM421 73Q387 36 340 13.5Q293 -9 236 -9Q152 -9 97.5 41Q43 91 43 169Q43 232 81 271.5Q119 311 171 334Q140 367 121 399Q102 431 102 474Q102 541 147 582Q192 623 254 623Q327 623 364.5 581Q402 539 402 483Q402 428 361.5 387.5Q321 347 246 321L420 140Q439 171 450.5 209Q462 247 467 289L512 281Q505 234 489.5 190Q474 146 449 109L554 0H491Z" glyph-name="ampersand" horiz-adv-x="567" unicode="&amp;" /><glyph d="M373 0Q342 -52 332.5 -75Q323 -98 323 -117Q323 -131 330 -138Q337 -145 348 -145Q358 -145 366.5 -141.5Q375 -138 385 -131V-167Q375 -174 364 -178Q353 -182 340 -182Q315 -182 299 -167Q283 -152 283 -122Q283 -98 295 -71Q307 -44 333 0H325V42Q310 25 276.5 9Q243 -7 202 -7Q135 -7 86.5 30Q38 67 38 130Q38 191 86.5 228.5Q135 266 204 266Q243 266 276.5 250.5Q310 235 325 219V298Q325 347 296.5 378Q268 409 214 409Q173 409 144 390.5Q115 372 102 333L58 346Q75 397 117.5 425Q160 453 215 453Q288 453 330.5 411Q373 369 373 300ZM325 158Q315 186 281 205Q247 224 207 224Q160 224 122.5 200.5Q85 177 85 130Q85 83 122.5 59Q160 35 207 35Q247 35 281 54Q315 73 325 101Z" glyph-name="aogonek" horiz-adv-x="439" unicode="&#261;" /><glyph d="M75 350Q101 374 126.5 384.5Q152 395 174 395Q223 395 260.5 371.5Q298 348 344 348Q367 348 393 359.5Q419 371 447 396V350Q419 325 393 315Q367 305 344 305Q297 305 258.5 328.5Q220 352 174 352Q152 352 126.5 340.5Q101 329 75 304ZM75 240Q101 265 126.5 275.5Q152 286 174 286Q223 286 260.5 262Q298 238 344 238Q367 238 393 249.5Q419 261 447 287V241Q419 216 393 206Q367 196 344 196Q297 196 258.5 219.5Q220 243 174 243Q152 243 126.5 231.5Q101 220 75 195Z" glyph-name="approxequal" horiz-adv-x="521" unicode="&#8776;" /><glyph d="M74 350Q100 374 125.5 384.5Q151 395 173 395Q222 395 259.5 371.5Q297 348 343 348Q366 348 392 359.5Q418 371 446 396V350Q418 325 392 315Q366 305 343 305Q296 305 257.5 328.5Q219 352 173 352Q151 352 125.5 340.5Q100 329 74 304ZM74 240Q100 265 125.5 275.5Q151 286 173 286Q222 286 259.5 262Q297 238 343 238Q366 238 392 249.5Q418 261 446 287V241Q418 216 392 206Q366 196 343 196Q296 196 257.5 219.5Q219 243 173 243Q151 243 125.5 231.5Q100 220 74 195Z" glyph-name="approxequal.lt" horiz-adv-x="520" /><glyph d="M325 158Q315 186 281 205Q247 224 207 224Q160 224 122.5 200.5Q85 177 85 130Q85 83 122.5 59Q160 35 207 35Q247 35 281 54Q315 73 325 101ZM325 0V42Q311 25 277 9Q243 -7 202 -7Q135 -7 86.5 30Q38 67 38 130Q38 191 86.5 228.5Q135 266 204 266Q243 266 276.5 250.5Q310 235 325 219V298Q325 347 296.5 378Q268 409 214 409Q173 409 144 390.5Q115 372 102 333L58 346Q75 397 117.5 425Q160 453 215 453Q288 453 330.5 411Q373 369 373 300V0ZM302 580Q302 546 278.5 522.5Q255 499 221 499Q187 499 163.5 522.5Q140 546 140 580Q140 614 163.5 637.5Q187 661 221 661Q255 661 278.5 637.5Q302 614 302 580ZM270 580Q270 601 255.5 615Q241 629 221 629Q201 629 186.5 615Q172 601 172 580Q172 559 186.5 545Q201 531 221 531Q241 531 255.5 545Q270 559 270 580Z" glyph-name="aring" horiz-adv-x="439" unicode="&#229;" /><glyph d="M197 648 255 732H308L245 648ZM304 550Q304 521 279 500.5Q254 480 219 480Q185 480 160.5 500.5Q136 521 136 550Q136 580 160.5 600.5Q185 621 219 621Q254 621 279 600.5Q304 580 304 550ZM271 550Q271 568 256 579.5Q241 591 219 591Q198 591 183.5 579.5Q169 568 169 550Q169 532 183.5 520.5Q198 509 219 509Q241 509 256 520.5Q271 532 271 550ZM325 158Q315 186 281 205Q247 224 207 224Q160 224 122.5 200.5Q85 177 85 130Q85 83 122.5 59Q160 35 207 35Q247 35 281 54Q315 73 325 101ZM325 0V42Q311 25 277 9Q243 -7 202 -7Q135 -7 86.5 30Q38 67 38 130Q38 191 86.5 228.5Q135 266 204 266Q243 266 276.5 250.5Q310 235 325 219V298Q325 347 296.5 378Q268 409 214 409Q173 409 144 390.5Q115 372 102 333L58 346Q75 397 117.5 425Q160 453 215 453Q288 453 330.5 411Q373 369 373 300V0Z" glyph-name="aringacute" horiz-adv-x="439" unicode="&#507;" /><glyph d="M182 614 296 433H243L160 562L78 433H25L139 614Z" glyph-name="asciicircum" horiz-adv-x="321" unicode="^" /><glyph d="M366 329Q366 277 342.5 246Q319 215 277 215Q228 215 198.5 251Q169 287 135 287Q111 287 98 268.5Q85 250 85 219H40Q40 270 63.5 301Q87 332 130 332Q178 332 207 296.5Q236 261 272 261Q296 261 308.5 279.5Q321 298 321 329Z" glyph-name="asciitilde" horiz-adv-x="406" unicode="~" /><glyph d="M31 567 48 595 141 541V649H174V541L267 595L283 567L189 513L283 459L267 431L174 485V378H141V485L48 431L31 459L125 513Z" glyph-name="asterisk" horiz-adv-x="315" unicode="*" /><glyph d="M503 125Q497 90 511.5 77.5Q526 65 551 65Q611 65 653 117.5Q695 170 695 268Q695 378 615 449.5Q535 521 410 521Q262 521 171 423.5Q80 326 80 186Q80 26 184.5 -44.5Q289 -115 411 -115Q474 -115 523.5 -103Q573 -91 610 -74L621 -111Q584 -127 529 -140.5Q474 -154 411 -154Q268 -154 152.5 -73Q37 8 37 186Q37 340 140.5 451Q244 562 410 562Q556 562 646.5 477.5Q737 393 737 268Q737 147 678 86.5Q619 26 546 26Q512 26 486.5 42.5Q461 59 456 88Q439 65 409.5 47Q380 29 347 29Q284 29 250.5 71.5Q217 114 217 175Q217 256 267 322Q317 388 398 388Q435 388 460 370Q485 352 495 331L504 380H548ZM485 279Q475 307 453 326.5Q431 346 400 346Q337 346 300 291.5Q263 237 263 176Q263 127 287.5 98.5Q312 70 353 70Q387 70 414 90.5Q441 111 461 140Z" glyph-name="at" horiz-adv-x="774" unicode="@" /><glyph d="M503 217Q497 182 511.5 169.5Q526 157 551 157Q611 157 653 209.5Q695 262 695 360Q695 470 615 541.5Q535 613 410 613Q262 613 171 515.5Q80 418 80 278Q80 118 184.5 47.5Q289 -23 411 -23Q474 -23 523.5 -11Q573 1 610 18L621 -19Q584 -35 529 -48.5Q474 -62 411 -62Q268 -62 152.5 19Q37 100 37 278Q37 432 140.5 543Q244 654 410 654Q556 654 646.5 569.5Q737 485 737 360Q737 239 678 178.5Q619 118 546 118Q512 118 486.5 134.5Q461 151 456 180Q439 157 409.5 139Q380 121 347 121Q284 121 250.5 163.5Q217 206 217 267Q217 348 267 414Q317 480 398 480Q435 480 460 462Q485 444 495 423L504 472H548ZM485 371Q475 399 453 418.5Q431 438 400 438Q337 438 300 383.5Q263 329 263 268Q263 219 287.5 190.5Q312 162 353 162Q387 162 414 182.5Q441 203 461 232Z" glyph-name="at.cap" horiz-adv-x="774" /><glyph d="M325 158Q315 186 281 205Q247 224 207 224Q160 224 122.5 200.5Q85 177 85 130Q85 83 122.5 59Q160 35 207 35Q247 35 281 54Q315 73 325 101ZM325 0V42Q311 25 277 9Q243 -7 202 -7Q135 -7 86.5 30Q38 67 38 130Q38 191 86.5 228.5Q135 266 204 266Q243 266 276.5 250.5Q310 235 325 219V298Q325 347 296.5 378Q268 409 214 409Q173 409 144 390.5Q115 372 102 333L58 346Q75 397 117.5 425Q160 453 215 453Q288 453 330.5 411Q373 369 373 300V0ZM347 625Q347 578 330 549Q313 520 279 520Q242 520 219.5 552.5Q197 585 171 585Q154 585 144.5 568Q135 551 135 523H100Q100 570 117 599Q134 628 168 628Q206 628 228 595.5Q250 563 276 563Q293 563 302.5 580Q312 597 312 625Z" glyph-name="atilde" horiz-adv-x="439" unicode="&#227;" /><glyph d="M121 0H72V650H121V378Q140 406 176.5 429.5Q213 453 259 453Q357 453 405 383.5Q453 314 453 222Q453 130 405 60.5Q357 -9 259 -9Q213 -9 176.5 14.5Q140 38 121 66ZM121 125Q143 82 179 59.5Q215 37 255 37Q324 37 363.5 89.5Q403 142 403 222Q403 302 363.5 354.5Q324 407 255 407Q215 407 179 384.5Q143 362 121 319Z" glyph-name="b" horiz-adv-x="492" unicode="b" /><glyph d="M301 -84H253L5 650H53Z" glyph-name="backslash" horiz-adv-x="306" unicode="\" /><glyph d="M301 -64H253L5 670H53Z" glyph-name="backslash.cap" horiz-adv-x="306" /><glyph d="M79 650H126V-84H79Z" glyph-name="bar" horiz-adv-x="205" unicode="|" /><glyph d="M79 670H126V-64H79Z" glyph-name="bar.cap" horiz-adv-x="205" /><glyph d="M152 6Q152 -17 163 -28Q174 -39 194 -39H307V-84H195Q155 -84 129.5 -58Q104 -32 104 9V215Q104 237 93.5 248.5Q83 260 62 260H20V306H62Q83 306 93.5 317.5Q104 329 104 351V557Q104 598 129.5 624Q155 650 195 650H307V605H194Q174 605 163 594Q152 583 152 560V353Q152 328 140.5 310.5Q129 293 112 283Q129 272 140.5 254.5Q152 237 152 213Z" glyph-name="braceleft" horiz-adv-x="334" unicode="{" /><glyph d="M152 22Q152 0 163 -11.5Q174 -23 194 -23H307V-68H195Q155 -68 129.5 -42Q104 -16 104 25V232Q104 254 93.5 265.5Q83 277 62 277H20V322H62Q83 322 93.5 333.5Q104 345 104 367V573Q104 615 129.5 640.5Q155 666 195 666H307V621H194Q174 621 163 610Q152 599 152 576V369Q152 344 140.5 326.5Q129 309 112 299Q129 289 140.5 271.5Q152 254 152 229Z" glyph-name="braceleft.cap" horiz-adv-x="334" /><glyph d="M182 213Q182 237 193.5 254.5Q205 272 222 283Q205 293 193.5 310.5Q182 328 182 353V560Q182 583 171 594Q160 605 140 605H27V650H139Q179 650 204.5 624Q230 598 230 557V351Q230 329 240.5 317.5Q251 306 272 306H314V260H272Q251 260 240.5 248.5Q230 237 230 215V9Q230 -32 204.5 -58Q179 -84 139 -84H27V-39H140Q160 -39 171 -28Q182 -17 182 6Z" glyph-name="braceright" horiz-adv-x="334" unicode="}" /><glyph d="M182 229Q182 254 193.5 271.5Q205 289 222 299Q205 309 193.5 326.5Q182 344 182 369V576Q182 599 171 610Q160 621 140 621H27V666H139Q179 666 204.5 640.5Q230 615 230 573V367Q230 345 240.5 333.5Q251 322 272 322H314V277H272Q251 277 240.5 265.5Q230 254 230 232V25Q230 -16 204.5 -42Q179 -68 139 -68H27V-23H140Q160 -23 171 -11.5Q182 0 182 22Z" glyph-name="braceright.cap" horiz-adv-x="334" /><glyph d="M126 -39H284V-84H79V650H284V605H126Z" glyph-name="bracketleft" horiz-adv-x="311" unicode="[" /><glyph d="M126 -23H284V-68H79V666H284V621H126Z" glyph-name="bracketleft.cap" horiz-adv-x="311" /><glyph d="M185 605H27V650H232V-84H27V-39H185Z" glyph-name="bracketright" horiz-adv-x="311" unicode="]" /><glyph d="M185 621H27V666H232V-68H27V-23H185Z" glyph-name="bracketright.cap" horiz-adv-x="311" /><glyph d="M250 506Q206 506 177 537Q148 568 148 626H188Q188 587 205 565Q222 543 250 543Q278 543 295 565Q312 587 312 626H352Q352 568 323 537Q294 506 250 506Z" glyph-name="breve" horiz-adv-x="500" unicode="&#728;" /><glyph d="M250 664Q205 664 176 694Q147 724 147 781H187Q187 743 204.5 722.5Q222 702 250 702Q277 702 295 722.5Q313 743 313 781H352Q352 724 323.5 694Q295 664 250 664Z" glyph-name="breve.cap" horiz-adv-x="500" /><glyph d="M295 260Q295 204 257.5 168Q220 132 166 132Q113 132 75.5 168Q38 204 38 260Q38 316 75.5 352Q113 388 166 388Q220 388 257.5 352Q295 316 295 260Z" glyph-name="bullet" horiz-adv-x="332" unicode="&#8226;" /><glyph d="M295 300Q295 244 257.5 208Q220 172 166 172Q113 172 75.5 208Q38 244 38 300Q38 356 75.5 392Q113 428 166 428Q220 428 257.5 392Q295 356 295 300Z" glyph-name="bullet.cap" horiz-adv-x="332" /><glyph d="M39 222Q39 325 93 389Q147 453 234 453Q300 453 342 419Q384 385 399 329L353 315Q343 358 312 383Q281 408 235 408Q170 408 129.5 357Q89 306 89 222Q89 138 129.5 87Q170 36 235 36Q281 36 312 61Q343 86 353 129L399 115Q384 59 342 25Q300 -9 234 -9Q147 -9 93 55Q39 119 39 222Z" glyph-name="c" horiz-adv-x="436" unicode="c" /><glyph d="M39 222Q39 325 93 389Q147 453 234 453Q300 453 342 419Q384 385 399 329L353 315Q343 358 312 383Q281 408 235 408Q170 408 129.5 357Q89 306 89 222Q89 138 129.5 87Q170 36 235 36Q281 36 312 61Q343 86 353 129L399 115Q384 59 342 25Q300 -9 234 -9Q147 -9 93 55Q39 119 39 222ZM208 520 291 650H344L257 520Z" glyph-name="cacute" horiz-adv-x="436" unicode="&#263;" /><glyph d="M272 515H228L136 645H182L250 550L318 645H364Z" glyph-name="caron" horiz-adv-x="500" unicode="&#711;" /><glyph d="M211 490 244 650H284L252 490Z" glyph-name="caron.Slovak" horiz-adv-x="500" /><glyph d="M136 779H183L250 696L317 779H364L272 660H228Z" glyph-name="caron.cap" horiz-adv-x="500" /><glyph d="M39 222Q39 325 93 389Q147 453 234 453Q300 453 342 419Q384 385 399 329L353 315Q343 358 312 383Q281 408 235 408Q170 408 129.5 357Q89 306 89 222Q89 138 129.5 87Q170 36 235 36Q281 36 312 61Q343 86 353 129L399 115Q384 59 342 25Q300 -9 234 -9Q147 -9 93 55Q39 119 39 222ZM260 515H216L124 645H170L238 550L306 645H352Z" glyph-name="ccaron" horiz-adv-x="436" unicode="&#269;" /><glyph d="M39 222Q39 325 93 389Q147 453 234 453Q300 453 342 419Q384 385 399 329L353 315Q343 358 312 383Q281 408 235 408Q170 408 129.5 357Q89 306 89 222Q89 138 129.5 87Q170 36 235 36Q281 36 312 61Q343 86 353 129L399 115Q384 59 342 25Q300 -9 234 -9Q147 -9 93 55Q39 119 39 222ZM155 -175 214 -48H262L201 -175Z" glyph-name="ccedilla" horiz-adv-x="436" unicode="&#231;" /><glyph d="M39 222Q39 325 93 389Q147 453 234 453Q300 453 342 419Q384 385 399 329L353 315Q343 358 312 383Q281 408 235 408Q170 408 129.5 357Q89 306 89 222Q89 138 129.5 87Q170 36 235 36Q281 36 312 61Q343 86 353 129L399 115Q384 59 342 25Q300 -9 234 -9Q147 -9 93 55Q39 119 39 222ZM352 513H306L238 610L170 513H124L216 644H260Z" glyph-name="ccircumflex" horiz-adv-x="436" unicode="&#265;" /><glyph d="M39 222Q39 325 93 389Q147 453 234 453Q300 453 342 419Q384 385 399 329L353 315Q343 358 312 383Q281 408 235 408Q170 408 129.5 357Q89 306 89 222Q89 138 129.5 87Q170 36 235 36Q281 36 312 61Q343 86 353 129L399 115Q384 59 342 25Q300 -9 234 -9Q147 -9 93 55Q39 119 39 222ZM272 579Q272 565 262 555Q252 545 238 545Q224 545 214 555Q204 565 204 579Q204 592 214 602.5Q224 613 238 613Q252 613 262 602.5Q272 592 272 579Z" glyph-name="cdotaccent" horiz-adv-x="436" unicode="&#267;" /><glyph d="M195 -175 254 -48H302L241 -175Z" glyph-name="cedilla" horiz-adv-x="500" unicode="&#184;" /><glyph d="M195 -175 254 -48H302L241 -175Z" glyph-name="cedilla.alt" horiz-adv-x="500" /><glyph d="M401 127Q388 76 352.5 43Q317 10 263 3V-84H218V2Q137 8 88 71Q39 134 39 232Q39 330 88 393Q137 456 218 462V548H263V461Q317 454 352.5 421Q388 388 401 337L356 324Q345 367 314 393Q283 419 236 419Q170 419 129.5 367.5Q89 316 89 232Q89 148 129.5 96.5Q170 45 236 45Q283 45 314 71Q345 97 356 140L401 127Z" glyph-name="cent" horiz-adv-x="442" unicode="&#162;" /><glyph d="M436 127Q423 76 387.5 43Q352 10 298 3V-84H253V2Q172 8 123 71Q74 134 74 232Q74 330 123 393Q172 456 253 462V548H298V461Q352 454 387.5 421Q423 388 436 337L391 324Q381 367 349.5 393Q318 419 271 419Q206 419 165 367.5Q124 316 124 232Q124 148 165 96.5Q206 45 271 45Q318 45 349.5 71Q381 97 391 140L436 127Z" glyph-name="cent.lt" horiz-adv-x="520" /><glyph d="M364 513H318L250 610L182 513H136L228 644H272Z" glyph-name="circumflex" horiz-adv-x="500" unicode="&#710;" /><glyph d="M364 667H317L250 751L183 667H136L228 786H272Z" glyph-name="circumflex.cap" horiz-adv-x="500" /><glyph d="M33 364Q33 380 44 391.5Q55 403 70 403Q86 403 97 391.5Q108 380 108 364Q108 348 97 337Q86 326 70 326Q55 326 44 337Q33 348 33 364ZM33 35Q33 51 44 62.5Q55 74 70 74Q86 74 97 62.5Q108 51 108 35Q108 19 97 8Q86 -3 70 -3Q55 -3 44 8Q33 19 33 35Z" glyph-name="colon" horiz-adv-x="141" unicode=":" /><glyph d="M93 364Q93 380 104 391.5Q115 403 130 403Q146 403 157 391.5Q168 380 168 364Q168 348 157 337Q146 326 130 326Q115 326 104 337Q93 348 93 364ZM93 35Q93 51 104 62.5Q115 74 130 74Q146 74 157 62.5Q168 51 168 35Q168 19 157 8Q146 -3 130 -3Q115 -3 104 8Q93 19 93 35Z" glyph-name="colon.tab" horiz-adv-x="260" /><glyph d="M63 -1Q51 1 42 10Q33 19 33 35Q33 51 43.5 62Q54 73 70 73Q86 73 97 62Q108 51 108 33Q108 21 103.5 10Q99 -1 93 -11L45 -101H9Z" glyph-name="comma" horiz-adv-x="141" unicode="," /><glyph d="M123 -1Q110 1 101 10Q92 19 92 35Q92 51 103 62Q114 73 130 73Q146 73 157 62Q168 51 168 33Q168 21 163.5 10Q159 -1 153 -11L104 -101H69Z" glyph-name="comma.tab" horiz-adv-x="260" /><glyph d="M248 -116Q236 -114 227 -105.5Q218 -97 218 -82Q218 -67 228.5 -57Q239 -47 255 -47Q270 -47 280 -57.5Q290 -68 290 -84Q290 -96 285.5 -105.5Q281 -115 276 -125L245 -183H212Z" glyph-name="commaaccent" horiz-adv-x="500" unicode="&#63171;" /><glyph d="M252 595Q264 593 272.5 584Q281 575 281 561Q281 546 270.5 535.5Q260 525 245 525Q229 525 218.5 535.5Q208 546 208 562Q208 575 212.5 584.5Q217 594 223 604L254 663H288Z" glyph-name="commaturn" horiz-adv-x="500" /><glyph d="M670 307Q670 170 576.5 80.5Q483 -9 354 -9Q225 -9 132 80.5Q39 170 39 307Q39 444 132 533.5Q225 623 354 623Q483 623 576.5 533.5Q670 444 670 307ZM638 307Q638 430 554 510.5Q470 591 354 591Q238 591 154 510.5Q70 430 70 307Q70 184 154 103.5Q238 23 354 23Q470 23 554 103.5Q638 184 638 307ZM232 309Q232 240 268 197.5Q304 155 359 155Q397 155 422.5 174.5Q448 194 460 228L505 211Q489 165 451 137.5Q413 110 359 110Q284 110 233.5 164.5Q183 219 183 309Q183 399 233.5 453.5Q284 508 359 508Q413 508 451 480.5Q489 453 505 407L460 390Q448 424 422.5 443.5Q397 463 359 463Q304 463 268 420.5Q232 378 232 309Z" glyph-name="copyright" horiz-adv-x="708" unicode="&#169;" /><glyph d="M371 319Q349 362 313 384.5Q277 407 237 407Q168 407 128.5 354.5Q89 302 89 222Q89 142 128.5 89.5Q168 37 237 37Q277 37 313 59.5Q349 82 371 125ZM371 66Q352 38 315.5 14.5Q279 -9 233 -9Q135 -9 87 60.5Q39 130 39 222Q39 314 87 383.5Q135 453 233 453Q279 453 315.5 429.5Q352 406 371 378V650H420V0H371Z" glyph-name="d" horiz-adv-x="492" unicode="d" /><glyph d="M170 519V315H130V519H31V558H130V650H170V558H269V519Z" glyph-name="dagger" horiz-adv-x="300" unicode="&#8224;" /><glyph d="M172 405V315H131V405H32V443H131V522H32V560H131V650H172V560H272V522H172V443H272V405Z" glyph-name="daggerdbl" horiz-adv-x="304" unicode="&#8225;" /><glyph d="M371 319Q349 362 313 384.5Q277 407 237 407Q168 407 128.5 354.5Q89 302 89 222Q89 142 128.5 89.5Q168 37 237 37Q277 37 313 59.5Q349 82 371 125ZM371 66Q352 38 315.5 14.5Q279 -9 233 -9Q135 -9 87 60.5Q39 130 39 222Q39 314 87 383.5Q135 453 233 453Q279 453 315.5 429.5Q352 406 371 378V650H420V0H371ZM477 490 510 650H550L518 490Z" glyph-name="dcaron" horiz-adv-x="492" unicode="&#271;" /><glyph d="M371 319Q349 362 313 384.5Q277 407 237 407Q168 407 128.5 354.5Q89 302 89 222Q89 142 128.5 89.5Q168 37 237 37Q277 37 313 59.5Q349 82 371 125ZM371 66Q352 38 315.5 14.5Q279 -9 233 -9Q135 -9 87 60.5Q39 130 39 222Q39 314 87 383.5Q135 453 233 453Q279 453 315.5 429.5Q352 406 371 378V520H256V557H371V650H420V557H473V520H420V0H371Z" glyph-name="dcroat" horiz-adv-x="492" unicode="&#273;" /><glyph d="M271 508Q271 461 238 427.5Q205 394 158 394Q111 394 78 427.5Q45 461 45 508Q45 556 78 589.5Q111 623 158 623Q205 623 238 589.5Q271 556 271 508ZM85 508Q85 477 106.5 455.5Q128 434 158 434Q189 434 210.5 455.5Q232 477 232 508Q232 539 210.5 561Q189 583 158 583Q128 583 106.5 561Q85 539 85 508Z" glyph-name="degree" horiz-adv-x="316" unicode="&#176;" /><glyph d="M155 571Q155 584 164.5 593.5Q174 603 188 603Q201 603 210.5 593.5Q220 584 220 571Q220 557 210.5 547.5Q201 538 188 538Q174 538 164.5 547.5Q155 557 155 571ZM280 571Q280 584 289.5 593.5Q299 603 312 603Q325 603 335 593.5Q345 584 345 571Q345 557 335 547.5Q325 538 312 538Q299 538 289.5 547.5Q280 557 280 571Z" glyph-name="dieresis" horiz-adv-x="500" unicode="&#168;" /><glyph d="M155 715Q155 729 164.5 738.5Q174 748 188 748Q201 748 210.5 738.5Q220 729 220 715Q220 702 210.5 692Q201 682 188 682Q174 682 164.5 692Q155 702 155 715ZM280 715Q280 729 289.5 738.5Q299 748 312 748Q325 748 335 738.5Q345 729 345 715Q345 702 335 692Q325 682 312 682Q299 682 289.5 692Q280 702 280 715Z" glyph-name="dieresis.cap" horiz-adv-x="500" /><glyph d="M220 447Q220 463 231 474Q242 485 257 485Q271 485 282 474Q293 463 293 447Q293 432 282 421.5Q271 411 257 411Q242 411 231 421.5Q220 432 220 447ZM71 316H443V273H71ZM220 142Q220 157 231 168Q242 179 257 179Q271 179 282 168Q293 157 293 142Q293 126 282 115.5Q271 105 257 105Q242 105 231 115.5Q220 126 220 142Z" glyph-name="divide" horiz-adv-x="514" unicode="&#247;" /><glyph d="M223 447Q223 463 234 474Q245 485 259 485Q274 485 285 474Q296 463 296 447Q296 432 285 421.5Q274 411 259 411Q245 411 234 421.5Q223 432 223 447ZM74 316H446V273H74ZM223 142Q223 157 234 168Q245 179 259 179Q274 179 285 168Q296 157 296 142Q296 126 285 115.5Q274 105 259 105Q245 105 234 115.5Q223 126 223 142Z" glyph-name="divide.lt" horiz-adv-x="520" /><glyph d="M212 -85V14Q146 18 95.5 52Q45 86 27 146L72 161Q90 110 133 83.5Q176 57 234 57Q296 57 338 87Q380 117 380 170Q380 207 358 233.5Q336 260 282 275L173 306Q114 322 78.5 353.5Q43 385 43 446Q43 516 93 556.5Q143 597 212 601V690H257V599Q323 592 364 557.5Q405 523 422 471L377 456Q362 502 325 530Q288 558 225 558Q169 558 129 529Q89 500 89 448Q89 403 117.5 382.5Q146 362 197 348L293 320Q362 301 394.5 264Q427 227 427 171Q427 103 377.5 61.5Q328 20 257 14V-85Z" glyph-name="dollar" horiz-adv-x="463" unicode="$" /><glyph d="M244 -85V14Q178 18 127.5 52Q77 86 59 146L104 161Q122 110 165 83.5Q208 57 266 57Q328 57 370 87Q412 117 412 170Q412 207 390 233.5Q368 260 314 275L205 306Q146 322 110 353.5Q74 385 74 446Q74 516 124.5 556.5Q175 597 244 601V690H289V599Q355 592 396 557.5Q437 523 454 471L409 456Q394 502 357 530Q320 558 257 558Q201 558 161 529Q121 500 121 448Q121 403 149.5 382.5Q178 362 228 348L325 320Q394 301 426.5 264Q459 227 459 171Q459 103 409.5 61.5Q360 20 289 14V-85Z" glyph-name="dollar.lt" horiz-adv-x="520" /><glyph d="M284 579Q284 565 274 555Q264 545 250 545Q236 545 226 555Q216 565 216 579Q216 592 226 602.5Q236 613 250 613Q264 613 274 602.5Q284 592 284 579Z" glyph-name="dotaccent" horiz-adv-x="500" unicode="&#729;" /><glyph d="M284 714Q284 700 274 690Q264 680 250 680Q236 680 226 690Q216 700 216 714Q216 728 226 738Q236 748 250 748Q264 748 274 738Q284 728 284 714Z" glyph-name="dotaccent.cap" horiz-adv-x="500" /><glyph d="M284 -112Q284 -125 274 -135.5Q264 -146 250 -146Q236 -146 226 -135.5Q216 -125 216 -112Q216 -98 226 -87.5Q236 -77 250 -77Q264 -77 274 -87.5Q284 -98 284 -112Z" glyph-name="dotbelow" horiz-adv-x="500" /><glyph d="M121 0H71V444H121Z" glyph-name="dotlessi" horiz-adv-x="192" unicode="&#305;" /><glyph d="M121 -63Q121 -123 90 -151Q59 -179 15 -179Q3 -179 -7.5 -176.5Q-18 -174 -26 -170L-15 -130Q-9 -132 -3 -133.5Q3 -135 11 -135Q38 -135 54.5 -119.5Q71 -104 71 -59V444H121Z" glyph-name="dotlessj" horiz-adv-x="192" unicode="&#567;" /><glyph d="M406 115Q390 59 346.5 25Q303 -9 237 -9Q150 -9 94.5 55Q39 119 39 222Q39 321 92 387Q145 453 235 453Q323 453 369 391.5Q415 330 415 236V218H88Q89 134 131 84.5Q173 35 237 35Q284 35 317.5 60Q351 85 363 128ZM235 409Q175 409 136 367.5Q97 326 90 257H365Q363 315 332 362Q301 409 235 409Z" glyph-name="e" horiz-adv-x="453" unicode="e" /><glyph d="M406 115Q390 59 346.5 25Q303 -9 237 -9Q150 -9 94.5 55Q39 119 39 222Q39 321 92 387Q145 453 235 453Q323 453 369 391.5Q415 330 415 236V218H88Q89 134 131 84.5Q173 35 237 35Q284 35 317.5 60Q351 85 363 128ZM235 409Q175 409 136 367.5Q97 326 90 257H365Q363 315 332 362Q301 409 235 409ZM208 520 291 650H344L257 520Z" glyph-name="eacute" horiz-adv-x="453" unicode="&#233;" /><glyph d="M406 115Q390 59 346.5 25Q303 -9 237 -9Q150 -9 94.5 55Q39 119 39 222Q39 321 92 387Q145 453 235 453Q323 453 369 391.5Q415 330 415 236V218H88Q89 134 131 84.5Q173 35 237 35Q284 35 317.5 60Q351 85 363 128ZM235 409Q175 409 136 367.5Q97 326 90 257H365Q363 315 332 362Q301 409 235 409ZM237 506Q193 506 164 537Q135 568 135 626H175Q175 587 192 565Q209 543 237 543Q265 543 282 565Q299 587 299 626H339Q339 568 310 537Q281 506 237 506Z" glyph-name="ebreve" horiz-adv-x="453" unicode="&#277;" /><glyph d="M406 115Q390 59 346.5 25Q303 -9 237 -9Q150 -9 94.5 55Q39 119 39 222Q39 321 92 387Q145 453 235 453Q323 453 369 391.5Q415 330 415 236V218H88Q89 134 131 84.5Q173 35 237 35Q284 35 317.5 60Q351 85 363 128ZM235 409Q175 409 136 367.5Q97 326 90 257H365Q363 315 332 362Q301 409 235 409ZM259 515H215L123 645H169L237 550L305 645H351Z" glyph-name="ecaron" horiz-adv-x="453" unicode="&#283;" /><glyph d="M406 115Q390 59 346.5 25Q303 -9 237 -9Q150 -9 94.5 55Q39 119 39 222Q39 321 92 387Q145 453 235 453Q323 453 369 391.5Q415 330 415 236V218H88Q89 134 131 84.5Q173 35 237 35Q284 35 317.5 60Q351 85 363 128ZM235 409Q175 409 136 367.5Q97 326 90 257H365Q363 315 332 362Q301 409 235 409ZM351 513H305L237 610L169 513H123L215 644H259Z" glyph-name="ecircumflex" horiz-adv-x="453" unicode="&#234;" /><glyph d="M406 115Q390 59 346.5 25Q303 -9 237 -9Q150 -9 94.5 55Q39 119 39 222Q39 321 92 387Q145 453 235 453Q323 453 369 391.5Q415 330 415 236V218H88Q89 134 131 84.5Q173 35 237 35Q284 35 317.5 60Q351 85 363 128ZM235 409Q175 409 136 367.5Q97 326 90 257H365Q363 315 332 362Q301 409 235 409ZM143 571Q143 584 152.5 593.5Q162 603 176 603Q189 603 198.5 593.5Q208 584 208 571Q208 557 198.5 547.5Q189 538 176 538Q162 538 152.5 547.5Q143 557 143 571ZM268 571Q268 584 277.5 593.5Q287 603 300 603Q313 603 323 593.5Q333 584 333 571Q333 557 323 547.5Q313 538 300 538Q287 538 277.5 547.5Q268 557 268 571Z" glyph-name="edieresis" horiz-adv-x="453" unicode="&#235;" /><glyph d="M406 115Q390 59 346.5 25Q303 -9 237 -9Q150 -9 94.5 55Q39 119 39 222Q39 321 92 387Q145 453 235 453Q323 453 369 391.5Q415 330 415 236V218H88Q89 134 131 84.5Q173 35 237 35Q284 35 317.5 60Q351 85 363 128ZM235 409Q175 409 136 367.5Q97 326 90 257H365Q363 315 332 362Q301 409 235 409ZM271 579Q271 565 261 555Q251 545 237 545Q223 545 213 555Q203 565 203 579Q203 592 213 602.5Q223 613 237 613Q251 613 261 602.5Q271 592 271 579Z" glyph-name="edotaccent" horiz-adv-x="453" unicode="&#279;" /><glyph d="M406 115Q390 59 346.5 25Q303 -9 237 -9Q150 -9 94.5 55Q39 119 39 222Q39 321 92 387Q145 453 235 453Q323 453 369 391.5Q415 330 415 236V218H88Q89 134 131 84.5Q173 35 237 35Q284 35 317.5 60Q351 85 363 128ZM235 409Q175 409 136 367.5Q97 326 90 257H365Q363 315 332 362Q301 409 235 409ZM215 520 128 650H181L264 520Z" glyph-name="egrave" horiz-adv-x="453" unicode="&#232;" /><glyph d="M240 -9Q151 -9 92.5 41.5Q34 92 34 168Q34 225 69.5 268.5Q105 312 161 327Q115 343 87 380.5Q59 418 59 465Q59 532 110.5 577.5Q162 623 240 623Q319 623 370.5 577.5Q422 532 422 465Q422 418 394 380.5Q366 343 320 327Q376 312 411.5 268.5Q447 225 447 168Q447 92 388.5 41.5Q330 -9 240 -9ZM240 349Q299 349 336 382.5Q373 416 373 464Q373 513 336 546Q299 579 240 579Q182 579 145 546Q108 513 108 464Q108 416 145 382.5Q182 349 240 349ZM240 35Q309 35 353.5 74Q398 113 398 170Q398 227 353.5 266Q309 305 240 305Q171 305 127 266Q83 227 83 170Q83 113 127 74Q171 35 240 35Z" glyph-name="eight" horiz-adv-x="481" unicode="8" /><glyph d="M260 -9Q170 -9 110 41.5Q50 92 50 168Q50 225 86 268.5Q122 312 179 327Q133 343 104.5 380.5Q76 418 76 465Q76 532 128 577.5Q180 623 260 623Q341 623 393 577.5Q445 532 445 465Q445 418 416.5 380.5Q388 343 341 327Q398 312 434.5 268.5Q471 225 471 168Q471 92 411 41.5Q351 -9 260 -9ZM260 349Q320 349 358 382.5Q396 416 396 464Q396 513 358 546Q320 579 260 579Q201 579 162.5 546Q124 513 124 464Q124 416 162.5 382.5Q201 349 260 349ZM260 35Q331 35 376.5 74Q422 113 422 170Q422 227 376.5 266Q331 305 260 305Q190 305 144.5 266Q99 227 99 170Q99 113 144.5 74Q190 35 260 35Z" glyph-name="eight.lt" horiz-adv-x="520" /><glyph d="M33 35Q33 51 44 62.5Q55 74 70 74Q86 74 97 62.5Q108 51 108 35Q108 19 97 8Q86 -3 70 -3Q55 -3 44 8Q33 19 33 35ZM193 35Q193 51 204 62.5Q215 74 231 74Q246 74 257 62.5Q268 51 268 35Q268 19 257 8Q246 -3 231 -3Q215 -3 204 8Q193 19 193 35ZM354 35Q354 51 365 62.5Q376 74 391 74Q407 74 418 62.5Q429 51 429 35Q429 19 418 8Q407 -3 391 -3Q376 -3 365 8Q354 19 354 35Z" glyph-name="ellipsis" horiz-adv-x="462" unicode="&#8230;" /><glyph d="M406 115Q390 59 346.5 25Q303 -9 237 -9Q150 -9 94.5 55Q39 119 39 222Q39 321 92 387Q145 453 235 453Q323 453 369 391.5Q415 330 415 236V218H88Q89 134 131 84.5Q173 35 237 35Q284 35 317.5 60Q351 85 363 128ZM235 409Q175 409 136 367.5Q97 326 90 257H365Q363 315 332 362Q301 409 235 409ZM137 578H338V537H137Z" glyph-name="emacron" horiz-adv-x="453" unicode="&#275;" /><glyph d="M40 280H806V239H40Z" glyph-name="emdash" horiz-adv-x="846" unicode="&#8212;" /><glyph d="M40 320H806V279H40Z" glyph-name="emdash.cap" horiz-adv-x="846" /><glyph d="M40 280H435V239H40Z" glyph-name="endash" horiz-adv-x="475" unicode="&#8211;" /><glyph d="M40 320H435V279H40Z" glyph-name="endash.cap" horiz-adv-x="475" /><glyph d="M368 287Q368 338 340.5 372.5Q313 407 254 407Q208 407 172.5 379Q137 351 121 311V0H71V444H121V373Q141 404 178.5 428.5Q216 453 263 453Q338 453 377.5 408.5Q417 364 417 294V-63Q417 -123 386.5 -151Q356 -179 311 -179Q300 -179 289 -176.5Q278 -174 270 -170L281 -130Q287 -132 293.5 -133.5Q300 -135 308 -135Q334 -135 351 -119.5Q368 -104 368 -59Z" glyph-name="eng" horiz-adv-x="483" unicode="&#331;" /><glyph d="M292 3Q279 -3 265 -6Q251 -9 236 -9Q149 -9 94 55Q39 119 39 222Q39 321 92 387Q145 453 235 453Q323 453 369 391.5Q415 330 415 236V218H88Q89 134 130.5 84.5Q172 35 236 35Q283 35 316.5 60Q350 85 363 128L405 115Q398 87 384.5 67.5Q371 48 347 23Q313 -14 291.5 -47Q270 -80 270 -111Q270 -129 277.5 -137Q285 -145 296 -145Q306 -145 314.5 -141.5Q323 -138 333 -131V-167Q323 -174 312 -178Q301 -182 288 -182Q263 -182 246 -165.5Q229 -149 229 -120Q229 -89 246 -60Q263 -31 292 3ZM235 409Q175 409 136 367.5Q97 326 90 257H365Q363 315 332 362Q301 409 235 409Z" glyph-name="eogonek" horiz-adv-x="453" unicode="&#281;" /><glyph d="M75 380H447V338H75ZM75 252H447V210H75Z" glyph-name="equal" horiz-adv-x="521" unicode="=" /><glyph d="M74 380H446V338H74ZM74 252H446V210H74Z" glyph-name="equal.lt" horiz-adv-x="520" /><glyph d="M235 -9Q148 -9 93.5 55.5Q39 120 39 221Q39 323 93 387Q147 451 232 451Q272 451 301.5 434.5Q331 418 352 393H354Q341 424 315 462Q289 500 252 539L138 501L125 535L223 567Q201 587 177 607Q153 627 125 646V650H188Q210 635 231 618.5Q252 602 271 583L351 609L363 576L298 554Q358 487 395 402Q432 317 432 224Q432 120 377.5 55.5Q323 -9 235 -9ZM382 221Q382 305 341.5 356Q301 407 235 407Q169 407 129 356Q89 305 89 221Q89 138 129 86.5Q169 35 235 35Q301 35 341.5 86.5Q382 138 382 221Z" glyph-name="eth" horiz-adv-x="471" unicode="&#240;" /><glyph d="M75 614H131L121 192H85ZM65 35Q65 51 76 62.5Q87 74 103 74Q118 74 129 62.5Q140 51 140 35Q140 19 129 8Q118 -3 103 -3Q87 -3 76 8Q65 19 65 35Z" glyph-name="exclam" horiz-adv-x="206" unicode="!" /><glyph d="M103 444Q87 444 76 455.5Q65 467 65 483Q65 499 76 510Q87 521 103 521Q118 521 129 510Q140 499 140 483Q140 467 129 455.5Q118 444 103 444ZM85 326H121L131 -96H75Z" glyph-name="exclamdown" horiz-adv-x="209" unicode="&#161;" /><glyph d="M103 540Q87 540 76 551.5Q65 563 65 579Q65 595 76 606Q87 617 103 617Q118 617 129 606Q140 595 140 579Q140 563 129 551.5Q118 540 103 540ZM85 422H121L131 0H75Z" glyph-name="exclamdown.cap" horiz-adv-x="206" /><glyph d="M262 605Q253 609 243.5 611.5Q234 614 222 614Q188 614 165.5 589.5Q143 565 143 519V444H247V401H143V0H94V401H22V444H94V524Q94 584 130 621.5Q166 659 220 659Q234 659 247.5 656Q261 653 272 647Z" glyph-name="f" horiz-adv-x="258" unicode="f" /><glyph d="M94 518Q94 578 130 615.5Q166 653 220 653Q234 653 247 650Q260 647 271 641L261 599Q252 603 243 605.5Q234 608 223 608Q189 608 166 583.5Q143 559 143 513V444H330V524Q330 584 365.5 621.5Q401 659 455 659Q469 659 482.5 656Q496 653 507 647L497 605Q487 609 478 611.5Q469 614 458 614Q424 614 401 589.5Q378 565 378 519V444H483V401H378V0H330V401H143V0H94V401H22V444H94V518Z" glyph-name="f_f" horiz-adv-x="494" unicode="&#64256;" /><glyph d="M262 605Q253 609 243.5 611.5Q234 614 222 614Q188 614 165.5 589.5Q143 565 143 519V444H247V401H143V0H94V401H22V444H94V524Q94 584 130 621.5Q166 659 220 659Q234 659 247.5 656Q261 653 272 647ZM388 579Q388 565 378 555Q368 545 354 545Q340 545 330 555Q320 565 320 579Q320 592 330 602.5Q340 613 354 613Q368 613 378 602.5Q388 592 388 579ZM379 0H329V444H379Z" glyph-name="fi" horiz-adv-x="450" unicode="&#64257;" /><glyph d="M230 344Q190 344 160.5 327Q131 310 112 286H68V614H394V567H113V344Q131 361 162 375.5Q193 390 233 390Q316 390 371 332Q426 274 426 190Q426 108 370 49.5Q314 -9 230 -9Q148 -9 95 34Q42 77 26 153L74 166Q88 104 127.5 70.5Q167 37 230 37Q293 37 334.5 81.5Q376 126 376 190Q376 254 334.5 299Q293 344 230 344Z" glyph-name="five" horiz-adv-x="460" unicode="5" /><glyph d="M259 344Q218 344 187 327Q156 310 136 286H92V614H428V567H136V342Q154 359 187.5 374.5Q221 390 262 390Q348 390 404.5 332Q461 274 461 190Q461 108 403.5 49.5Q346 -9 259 -9Q175 -9 120.5 34Q66 77 49 153L97 166Q112 104 152.5 70.5Q193 37 259 37Q324 37 367.5 81.5Q411 126 411 190Q411 254 368 299Q325 344 259 344Z" glyph-name="five.lt" horiz-adv-x="520" /><glyph d="M262 605Q253 609 243.5 611.5Q234 614 222 614Q188 614 165.5 589.5Q143 565 143 519V444H247V401H143V0H94V401H22V444H94V524Q94 584 130 621.5Q166 659 220 659Q234 659 247.5 656Q261 653 272 647ZM379 0H329V650H379Z" glyph-name="fl" horiz-adv-x="450" unicode="&#64258;" /><glyph d="M4 -173Q-13 -173 -27.5 -169.5Q-42 -166 -55 -161L-44 -118Q-31 -123 -21 -126Q-11 -129 2 -129Q37 -129 54.5 -104Q72 -79 79 -39L138 295H66V337H145L172 487Q182 547 217.5 585Q253 623 309 623Q329 623 343.5 619.5Q358 616 371 609L361 566Q348 573 337 576Q326 579 310 579Q274 579 251 553Q228 527 220 482L195 337H298V295H187L128 -44Q118 -99 88.5 -136Q59 -173 4 -173Z" glyph-name="florin" horiz-adv-x="384" unicode="&#402;" /><glyph d="M106 -173Q90 -173 75.5 -169.5Q61 -166 48 -161L59 -118Q71 -123 81.5 -126Q92 -129 105 -129Q139 -129 156.5 -104Q174 -79 181 -39L240 295H168V337H247L274 487Q284 547 319.5 585Q355 623 411 623Q432 623 446 619.5Q460 616 473 609L463 566Q451 573 440 576Q429 579 413 579Q376 579 353.5 553Q331 527 323 482L297 337H400V295H290L230 -44Q220 -99 190.5 -136Q161 -173 106 -173Z" glyph-name="florin.lt" horiz-adv-x="520" /><glyph d="M79 196H309V348H358V196H473V150H358V0H309V150H21V190L262 614H315Z" glyph-name="four" horiz-adv-x="500" unicode="4" /><glyph d="M92 196H322V348H371V196H486V150H371V0H322V150H34V190L275 614H329Z" glyph-name="four.lt" horiz-adv-x="520" /><glyph d="M-74 0H-120L278 614H324Z" glyph-name="fraction" horiz-adv-x="204" unicode="&#8260;" /><glyph d="M367 321Q345 362 310 384.5Q275 407 235 407Q166 407 127.5 356.5Q89 306 89 228Q89 149 127.5 98.5Q166 48 235 48Q275 48 310 70.5Q345 93 367 134ZM367 76Q348 48 312 25.5Q276 3 230 3Q134 3 86.5 71Q39 139 39 228Q39 316 86.5 384.5Q134 453 230 453Q276 453 312 430Q348 407 367 379V444H417V32Q417 -72 363.5 -125.5Q310 -179 228 -179Q156 -179 110.5 -146.5Q65 -114 49 -58L95 -44Q107 -90 142 -113Q177 -136 228 -136Q293 -136 330 -94Q367 -52 367 29Z" glyph-name="g" horiz-adv-x="488" unicode="g" /><glyph d="M367 321Q345 362 310 384.5Q275 407 235 407Q166 407 127.5 356.5Q89 306 89 228Q89 149 127.5 98.5Q166 48 235 48Q275 48 310 70.5Q345 93 367 134ZM367 76Q348 48 312 25.5Q276 3 230 3Q134 3 86.5 71Q39 139 39 228Q39 316 86.5 384.5Q134 453 230 453Q276 453 312 430Q348 407 367 379V444H417V32Q417 -72 363.5 -125.5Q310 -179 228 -179Q156 -179 110.5 -146.5Q65 -114 49 -58L95 -44Q107 -90 142 -113Q177 -136 228 -136Q293 -136 330 -94Q367 -52 367 29ZM250 506Q206 506 177 537Q148 568 148 626H188Q188 587 205 565Q222 543 250 543Q278 543 295 565Q312 587 312 626H352Q352 568 323 537Q294 506 250 506Z" glyph-name="gbreve" horiz-adv-x="488" unicode="&#287;" /><glyph d="M367 321Q345 362 310 384.5Q275 407 235 407Q166 407 127.5 356.5Q89 306 89 228Q89 149 127.5 98.5Q166 48 235 48Q275 48 310 70.5Q345 93 367 134ZM367 76Q348 48 312 25.5Q276 3 230 3Q134 3 86.5 71Q39 139 39 228Q39 316 86.5 384.5Q134 453 230 453Q276 453 312 430Q348 407 367 379V444H417V32Q417 -72 363.5 -125.5Q310 -179 228 -179Q156 -179 110.5 -146.5Q65 -114 49 -58L95 -44Q107 -90 142 -113Q177 -136 228 -136Q293 -136 330 -94Q367 -52 367 29ZM364 513H318L250 610L182 513H136L228 644H272Z" glyph-name="gcircumflex" horiz-adv-x="488" unicode="&#285;" /><glyph d="M367 321Q345 362 310 384.5Q275 407 235 407Q166 407 127.5 356.5Q89 306 89 228Q89 149 127.5 98.5Q166 48 235 48Q275 48 310 70.5Q345 93 367 134ZM367 76Q348 48 312 25.5Q276 3 230 3Q134 3 86.5 71Q39 139 39 228Q39 316 86.5 384.5Q134 453 230 453Q276 453 312 430Q348 407 367 379V444H417V32Q417 -72 363.5 -125.5Q310 -179 228 -179Q156 -179 110.5 -146.5Q65 -114 49 -58L95 -44Q107 -90 142 -113Q177 -136 228 -136Q293 -136 330 -94Q367 -52 367 29ZM253 595Q265 593 273.5 584Q282 575 282 561Q282 546 271.5 535.5Q261 525 246 525Q230 525 219.5 535.5Q209 546 209 562Q209 575 213.5 584.5Q218 594 224 604L255 663H289Z" glyph-name="gcommaaccent" horiz-adv-x="488" unicode="&#291;" /><glyph d="M367 321Q345 362 310 384.5Q275 407 235 407Q166 407 127.5 356.5Q89 306 89 228Q89 149 127.5 98.5Q166 48 235 48Q275 48 310 70.5Q345 93 367 134ZM367 76Q348 48 312 25.5Q276 3 230 3Q134 3 86.5 71Q39 139 39 228Q39 316 86.5 384.5Q134 453 230 453Q276 453 312 430Q348 407 367 379V444H417V32Q417 -72 363.5 -125.5Q310 -179 228 -179Q156 -179 110.5 -146.5Q65 -114 49 -58L95 -44Q107 -90 142 -113Q177 -136 228 -136Q293 -136 330 -94Q367 -52 367 29ZM284 579Q284 565 274 555Q264 545 250 545Q236 545 226 555Q216 565 216 579Q216 592 226 602.5Q236 613 250 613Q264 613 274 602.5Q284 592 284 579Z" glyph-name="gdotaccent" horiz-adv-x="488" unicode="&#289;" /><glyph d="M310 370Q367 362 414 315.5Q461 269 461 188Q461 97 407 45Q353 -7 274 -7Q246 -7 219.5 0Q193 7 174 20L187 63Q209 49 228.5 43Q248 37 273 37Q336 37 374 77.5Q412 118 412 190Q412 264 363.5 304.5Q315 345 240 345H197V389H240Q292 389 326 422.5Q360 456 360 506Q360 552 330 583.5Q300 615 247 615Q184 615 152 573Q120 531 120 467V0H71V467Q71 548 116 603.5Q161 659 247 659Q322 659 365 614.5Q408 570 408 508Q408 453 378.5 418Q349 383 310 370Z" glyph-name="germandbls" horiz-adv-x="501" unicode="&#223;" /><glyph d="M269 520 182 650H235L318 520Z" glyph-name="grave" horiz-adv-x="500" unicode="`" /><glyph d="M268 665 181 782H236L319 665Z" glyph-name="grave.cap" horiz-adv-x="500" /><glyph d="M340 269 65 119V168L297 293L65 418V466L340 316Z" glyph-name="greater" horiz-adv-x="397" unicode="&gt;" /><glyph d="M397 269 122 119V168L354 293L122 418V466L397 316Z" glyph-name="greater.lt" horiz-adv-x="520" /><glyph d="M341 308 67 193V239L290 331L67 423V469L341 354ZM341 111H67V154H341Z" glyph-name="greaterequal" horiz-adv-x="399" unicode="&#8805;" /><glyph d="M397 308 122 193V239L346 331L122 423V469L397 354ZM397 111H122V154H397Z" glyph-name="greaterequal.lt" horiz-adv-x="520" /><glyph d="M117 86 25 222 117 358H166L74 222L166 86ZM240 86 148 222 240 358H289L197 222L289 86Z" glyph-name="guillemotleft" horiz-adv-x="314" unicode="&#171;" /><glyph d="M117 173 25 309 117 445H166L74 309L166 173ZM240 173 148 309 240 445H289L197 309L289 173Z" glyph-name="guillemotleft.cap" horiz-adv-x="314" /><glyph d="M148 86 240 222 148 358H197L289 222L197 86ZM25 86 117 222 25 358H74L166 222L74 86Z" glyph-name="guillemotright" horiz-adv-x="314" unicode="&#187;" /><glyph d="M148 173 240 309 148 445H197L289 309L197 173ZM25 173 117 309 25 445H74L166 309L74 173Z" glyph-name="guillemotright.cap" horiz-adv-x="314" /><glyph d="M117 86 25 222 117 358H167L75 222L167 86Z" glyph-name="guilsinglleft" horiz-adv-x="192" unicode="&#8249;" /><glyph d="M117 173 25 309 117 445H167L75 309L167 173Z" glyph-name="guilsinglleft.cap" horiz-adv-x="192" /><glyph d="M25 86 117 222 25 358H75L167 222L75 86Z" glyph-name="guilsinglright" horiz-adv-x="192" unicode="&#8250;" /><glyph d="M25 173 117 309 25 445H75L167 309L75 173Z" glyph-name="guilsinglright.cap" horiz-adv-x="192" /><glyph d="M71 650H121V373Q141 404 178.5 428.5Q216 453 263 453Q338 453 377.5 408.5Q417 364 417 294V0H368V287Q368 338 340.5 372.5Q313 407 254 407Q208 407 172.5 379Q137 351 121 311V0H71Z" glyph-name="h" horiz-adv-x="483" unicode="h" /><glyph d="M121 0H71V520H19V557H71V650H121V557H236V520H121V373Q141 404 178.5 428.5Q216 453 263 453Q338 453 377.5 408.5Q417 364 417 294V0H368V287Q368 338 340.5 372.5Q313 407 254 407Q208 407 172.5 379Q137 351 121 311Z" glyph-name="hbar" horiz-adv-x="483" unicode="&#295;" /><glyph d="M71 650H121V373Q141 404 178.5 428.5Q216 453 263 453Q338 453 377.5 408.5Q417 364 417 294V0H368V287Q368 338 340.5 372.5Q313 407 254 407Q208 407 172.5 379Q137 351 121 311V0H71ZM358 672H311L244 756L177 672H130L222 791H266Z" glyph-name="hcircumflex" horiz-adv-x="483" unicode="&#293;" /><glyph d="M135 520 209 650H254L180 520ZM245 520 319 650H364L290 520Z" glyph-name="hungarumlaut" horiz-adv-x="500" unicode="&#733;" /><glyph d="M134 665 208 782H254L179 665ZM245 665 319 782H365L291 665Z" glyph-name="hungarumlaut.cap" horiz-adv-x="500" /><glyph d="M40 283H281V237H40Z" glyph-name="hyphen" horiz-adv-x="321" unicode="-" /><glyph d="M40 323H281V277H40Z" glyph-name="hyphen.cap" horiz-adv-x="321" /><glyph d="M130 579Q130 565 120 555Q110 545 96 545Q82 545 72 555Q62 565 62 579Q62 592 72 602.5Q82 613 96 613Q110 613 120 602.5Q130 592 130 579ZM121 0H71V444H121Z" glyph-name="i" horiz-adv-x="192" unicode="i" /><glyph d="M121 0H71V444H121ZM67 520 150 650H203L116 520Z" glyph-name="iacute" horiz-adv-x="192" unicode="&#237;" /><glyph d="M97 506Q57 506 32 537Q7 568 7 626H45Q45 587 58.5 565Q72 543 97 543Q121 543 135 565Q149 587 149 626H187Q187 568 161.5 537Q136 506 97 506ZM121 0H71V444H121Z" glyph-name="ibreve" horiz-adv-x="192" unicode="&#301;" /><glyph d="M190 513H146L96 607L46 513H2L74 644H118ZM121 0H71V444H121Z" glyph-name="icircumflex" horiz-adv-x="192" unicode="&#238;" /><glyph d="M10 571Q10 584 20 593.5Q30 603 43 603Q56 603 66 593.5Q76 584 76 571Q76 557 66 547.5Q56 538 43 538Q30 538 20 547.5Q10 557 10 571ZM117 571Q117 584 126.5 593.5Q136 603 149 603Q163 603 172.5 593.5Q182 584 182 571Q182 557 172.5 547.5Q163 538 149 538Q136 538 126.5 547.5Q117 557 117 571ZM121 0H71V444H121Z" glyph-name="idieresis" horiz-adv-x="192" unicode="&#239;" /><glyph d="M130 579Q130 565 120 555Q110 545 96 545Q82 545 72 555Q62 565 62 579Q62 592 72 602.5Q82 613 96 613Q110 613 120 602.5Q130 592 130 579ZM121 0H71V444H121Z" glyph-name="idotaccent" horiz-adv-x="192" /><glyph d="M121 0H71V444H121ZM74 520 -13 650H40L123 520Z" glyph-name="igrave" horiz-adv-x="192" unicode="&#236;" /><glyph d="M130 579Q130 565 120 555Q110 545 96 545Q82 545 72 555Q62 565 62 579Q62 592 72 602.5Q82 613 96 613Q110 613 120 602.5Q130 592 130 579ZM121 0H71V444H121ZM322 579Q322 565 312 555Q302 545 288 545Q274 545 264 555Q254 565 254 579Q254 592 264 602.5Q274 613 288 613Q302 613 312 602.5Q322 592 322 579ZM313 -63Q313 -123 282 -151Q251 -179 207 -179Q195 -179 184.5 -176.5Q174 -174 166 -170L177 -130Q183 -132 189 -133.5Q195 -135 203 -135Q230 -135 246.5 -119.5Q263 -104 263 -59V444H313Z" glyph-name="ij" horiz-adv-x="384" unicode="&#307;" /><glyph d="M19 578H176V537H19ZM121 0H71V444H121Z" glyph-name="imacron" horiz-adv-x="192" unicode="&#299;" /><glyph d="M130 579Q130 565 120 555Q110 545 96 545Q82 545 72 555Q62 565 62 579Q62 592 72 602.5Q82 613 96 613Q110 613 120 602.5Q130 592 130 579ZM121 0Q90 -52 80.5 -75Q71 -98 71 -117Q71 -131 78 -138Q85 -145 96 -145Q106 -145 114.5 -141.5Q123 -138 133 -131V-167Q123 -174 112 -178Q101 -182 88 -182Q63 -182 46.5 -167Q30 -152 30 -122Q30 -98 42.5 -71Q55 -44 81 0H71V444H121Z" glyph-name="iogonek" horiz-adv-x="192" unicode="&#303;" /><glyph d="M194 625Q194 578 180 549Q166 520 140 520Q110 520 92 552Q74 584 55 584Q42 584 36 567.5Q30 551 30 523H-3Q-3 570 11.5 599Q26 628 51 628Q82 628 99.5 596Q117 564 136 564Q149 564 155 580.5Q161 597 162 625ZM121 0H71V444H121Z" glyph-name="itilde" horiz-adv-x="192" unicode="&#297;" /><glyph d="M130 579Q130 565 120 555Q110 545 96 545Q82 545 72 555Q62 565 62 579Q62 592 72 602.5Q82 613 96 613Q110 613 120 602.5Q130 592 130 579ZM121 -63Q121 -123 90 -151Q59 -179 15 -179Q3 -179 -7.5 -176.5Q-18 -174 -26 -170L-15 -130Q-9 -132 -3 -133.5Q3 -135 11 -135Q38 -135 54.5 -119.5Q71 -104 71 -59V444H121Z" glyph-name="j" horiz-adv-x="192" unicode="j" /><glyph d="M190 513H146L96 607L46 513H2L74 644H118ZM121 -63Q121 -123 90 -151Q59 -179 15 -179Q3 -179 -7.5 -176.5Q-18 -174 -26 -170L-15 -130Q-9 -132 -3 -133.5Q3 -135 11 -135Q38 -135 54.5 -119.5Q71 -104 71 -59V444H121Z" glyph-name="jcircumflex" horiz-adv-x="192" unicode="&#309;" /><glyph d="M175 222 121 172V0H71V650H121V230L356 444H422L211 253L429 0H368Z" glyph-name="k" horiz-adv-x="446" unicode="k" /><glyph d="M175 222 121 172V0H71V650H121V230L356 444H422L211 253L429 0H368ZM210 -116Q198 -114 189 -105.5Q180 -97 180 -82Q180 -67 190.5 -57Q201 -47 217 -47Q232 -47 242 -57.5Q252 -68 252 -84Q252 -96 247.5 -105.5Q243 -115 238 -125L207 -183H174Z" glyph-name="kcommaaccent" horiz-adv-x="446" unicode="&#311;" /><glyph d="M175 222 121 172V0H71V444H121V230L356 444H422L211 253L429 0H368Z" glyph-name="kgreenlandic" horiz-adv-x="446" unicode="&#312;" /><glyph d="M121 0H71V650H121Z" glyph-name="l" horiz-adv-x="192" unicode="l" /><glyph d="M121 0H71V650H121ZM72 688 154 805H210L122 688Z" glyph-name="lacute" horiz-adv-x="192" unicode="&#314;" /><glyph d="M121 0H71V650H121ZM178 490 211 650H251L219 490Z" glyph-name="lcaron" horiz-adv-x="192" unicode="&#318;" /><glyph d="M121 0H71V650H121ZM90 -116Q78 -114 69 -105.5Q60 -97 60 -82Q60 -67 70.5 -57Q81 -47 97 -47Q112 -47 122 -57.5Q132 -68 132 -84Q132 -96 127.5 -105.5Q123 -115 118 -125L87 -183H54Z" glyph-name="lcommaaccent" horiz-adv-x="192" unicode="&#316;" /><glyph d="M121 0H71V650H121ZM278 325Q278 311 268 301Q258 291 244 291Q230 291 220 301Q210 311 210 325Q210 338 220 348.5Q230 359 244 359Q258 359 268 348.5Q278 338 278 325Z" glyph-name="ldot" horiz-adv-x="297" unicode="&#320;" /><glyph d="M58 316 332 466V418L100 293L332 168V119L58 269Z" glyph-name="less" horiz-adv-x="397" unicode="&lt;" /><glyph d="M122 316 397 466V418L165 293L397 168V119L122 269Z" glyph-name="less.lt" horiz-adv-x="520" /><glyph d="M58 354 333 469V423L109 331L333 239V193L58 308ZM58 154H333V111H58Z" glyph-name="lessequal" horiz-adv-x="399" unicode="&#8804;" /><glyph d="M122 354 397 469V423L173 331L397 239V193L122 308ZM122 154H397V111H122Z" glyph-name="lessequal.lt" horiz-adv-x="520" /><glyph d="M90 0V330L30 289V338L90 380V650H140V407L206 453V404L140 359V0Z" glyph-name="lslash" horiz-adv-x="231" unicode="&#322;" /><glyph d="M373 368Q392 401 428 427Q464 453 511 453Q578 453 612 409.5Q646 366 646 300V0H597V293Q597 344 574 375.5Q551 407 502 407Q461 407 429 380.5Q397 354 384 314V0H334V293Q334 344 311 375.5Q288 407 239 407Q198 407 166 380.5Q134 354 121 314V0H71V444H121V376Q137 407 170.5 430Q204 453 249 453Q297 453 328.5 429Q360 405 373 368Z" glyph-name="m" horiz-adv-x="713" unicode="m" /><glyph d="M149 578H350V537H149Z" glyph-name="macron" horiz-adv-x="500" unicode="&#175;" /><glyph d="M149 712H350V670H149Z" glyph-name="macron.cap" horiz-adv-x="500" /><glyph d="M71 316H443V273H71Z" glyph-name="minus" horiz-adv-x="514" unicode="&#8722;" /><glyph d="M74 316H446V273H74Z" glyph-name="minus.lt" horiz-adv-x="520" /><glyph d="M71 414 101 443 221 321 341 443 371 414 251 292 371 170 341 141 221 262 101 141 71 170 193 292Z" glyph-name="multiply" horiz-adv-x="442" unicode="&#215;" /><glyph d="M110 414 139 443 260 321 380 443 410 414 289 292 410 170 380 141 260 262 139 141 110 170 231 292Z" glyph-name="multiply.lt" horiz-adv-x="520" /><glyph d="M71 444H121V373Q141 404 178.5 428.5Q216 453 263 453Q338 453 377.5 408.5Q417 364 417 294V0H368V287Q368 338 340.5 372.5Q313 407 254 407Q208 407 172.5 379Q137 351 121 311V0H71Z" glyph-name="n" horiz-adv-x="483" unicode="n" /><glyph d="M71 444H121V373Q141 404 178.5 428.5Q216 453 263 453Q338 453 377.5 408.5Q417 364 417 294V0H368V287Q368 338 340.5 372.5Q313 407 254 407Q208 407 172.5 379Q137 351 121 311V0H71ZM216 520 299 650H352L265 520Z" glyph-name="nacute" horiz-adv-x="483" unicode="&#324;" /><glyph d="M71 444H121V373Q141 404 178.5 428.5Q216 453 263 453Q338 453 377.5 408.5Q417 364 417 294V0H368V287Q368 338 340.5 372.5Q313 407 254 407Q208 407 172.5 379Q137 351 121 311V0H71ZM268 515H224L132 645H178L246 550L314 645H360Z" glyph-name="ncaron" horiz-adv-x="483" unicode="&#328;" /><glyph d="M71 444H121V373Q141 404 178.5 428.5Q216 453 263 453Q338 453 377.5 408.5Q417 364 417 294V0H368V287Q368 338 340.5 372.5Q313 407 254 407Q208 407 172.5 379Q137 351 121 311V0H71ZM245 -116Q233 -114 224 -105.5Q215 -97 215 -82Q215 -67 225.5 -57Q236 -47 252 -47Q267 -47 277 -57.5Q287 -68 287 -84Q287 -96 282.5 -105.5Q278 -115 273 -125L242 -183H209Z" glyph-name="ncommaaccent" horiz-adv-x="483" unicode="&#326;" /><glyph d="M388 418Q388 486 345 532Q302 578 236 578Q172 578 128 532.5Q84 487 84 418Q84 349 128 303.5Q172 258 236 258Q302 258 345 303.5Q388 349 388 418ZM97 139Q112 94 143.5 65Q175 36 231 36Q304 36 355 108.5Q406 181 406 304Q406 312 405.5 325Q405 338 404 348Q391 289 342 251.5Q293 214 233 214Q149 214 92.5 273.5Q36 333 36 417Q36 503 93 563Q150 623 236 623Q300 623 346 591Q392 559 417 506Q437 464 445 415Q453 366 453 315Q453 161 388.5 76Q324 -9 231 -9Q157 -9 113 28.5Q69 66 50 126Z" glyph-name="nine" horiz-adv-x="495" unicode="9" /><glyph d="M402 418Q402 486 357 532Q312 578 245 578Q179 578 133.5 532.5Q88 487 88 418Q88 349 133.5 303.5Q179 258 245 258Q312 258 357 303.5Q402 349 402 418ZM102 139Q116 94 149.5 65Q183 36 240 36Q315 36 367.5 108.5Q420 181 420 304Q420 313 419.5 325Q419 337 418 348Q404 288 354.5 251Q305 214 242 214Q155 214 97.5 273.5Q40 333 40 417Q40 503 98.5 563Q157 623 245 623Q311 623 357.5 591Q404 559 430 506Q451 464 459 415Q467 366 467 315Q467 161 401 76Q335 -9 240 -9Q163 -9 118.5 28Q74 65 56 125Z" glyph-name="nine.lt" horiz-adv-x="520" /><glyph glyph-name="nonmarkingreturn" horiz-adv-x="221" unicode="" /><glyph d="M219 211 149 121H104L174 211H75V252H205L272 338H75V379H303L372 468H417L348 379H447V338H317L250 252H447V211Z" glyph-name="notequal" horiz-adv-x="521" unicode="&#8800;" /><glyph d="M218 211 148 121H103L173 211H74V252H204L271 338H74V379H302L371 468H416L347 379H446V338H316L249 252H446V211Z" glyph-name="notequal.lt" horiz-adv-x="520" /><glyph d="M71 444H121V373Q141 404 178.5 428.5Q216 453 263 453Q338 453 377.5 408.5Q417 364 417 294V0H368V287Q368 338 340.5 372.5Q313 407 254 407Q208 407 172.5 379Q137 351 121 311V0H71ZM368 625Q368 578 351 549Q334 520 300 520Q263 520 240.5 552.5Q218 585 192 585Q175 585 165.5 568Q156 551 156 523H121Q121 570 138 599Q155 628 189 628Q227 628 249 595.5Q271 563 297 563Q314 563 323.5 580Q333 597 333 625Z" glyph-name="ntilde" horiz-adv-x="483" unicode="&#241;" /><glyph d="M371 383H214L177 231H334ZM325 191H168L122 0H79L124 191H27L36 231H134L170 383H67L75 423H180L225 614H269L223 423H380L426 614H470L425 423H522L513 383H415L379 231H481L474 191H369L324 0H279Z" glyph-name="numbersign" horiz-adv-x="549" unicode="#" /><glyph d="M432 222Q432 120 377.5 55.5Q323 -9 235 -9Q148 -9 93.5 55.5Q39 120 39 222Q39 324 93.5 388.5Q148 453 235 453Q323 453 377.5 388.5Q432 324 432 222ZM382 222Q382 306 341.5 357.5Q301 409 235 409Q169 409 129 357.5Q89 306 89 222Q89 138 129 86.5Q169 35 235 35Q301 35 341.5 86.5Q382 138 382 222Z" glyph-name="o" horiz-adv-x="471" unicode="o" /><glyph d="M432 222Q432 120 377.5 55.5Q323 -9 235 -9Q148 -9 93.5 55.5Q39 120 39 222Q39 324 93.5 388.5Q148 453 235 453Q323 453 377.5 388.5Q432 324 432 222ZM382 222Q382 306 341.5 357.5Q301 409 235 409Q169 409 129 357.5Q89 306 89 222Q89 138 129 86.5Q169 35 235 35Q301 35 341.5 86.5Q382 138 382 222ZM206 520 289 650H342L255 520Z" glyph-name="oacute" horiz-adv-x="471" unicode="&#243;" /><glyph d="M432 222Q432 120 377.5 55.5Q323 -9 235 -9Q148 -9 93.5 55.5Q39 120 39 222Q39 324 93.5 388.5Q148 453 235 453Q323 453 377.5 388.5Q432 324 432 222ZM382 222Q382 306 341.5 357.5Q301 409 235 409Q169 409 129 357.5Q89 306 89 222Q89 138 129 86.5Q169 35 235 35Q301 35 341.5 86.5Q382 138 382 222ZM235 506Q191 506 162 537Q133 568 133 626H173Q173 587 190 565Q207 543 235 543Q263 543 280 565Q297 587 297 626H337Q337 568 308 537Q279 506 235 506Z" glyph-name="obreve" horiz-adv-x="471" unicode="&#335;" /><glyph d="M432 222Q432 120 377.5 55.5Q323 -9 235 -9Q148 -9 93.5 55.5Q39 120 39 222Q39 324 93.5 388.5Q148 453 235 453Q323 453 377.5 388.5Q432 324 432 222ZM382 222Q382 306 341.5 357.5Q301 409 235 409Q169 409 129 357.5Q89 306 89 222Q89 138 129 86.5Q169 35 235 35Q301 35 341.5 86.5Q382 138 382 222ZM349 513H303L235 610L167 513H121L213 644H257Z" glyph-name="ocircumflex" horiz-adv-x="471" unicode="&#244;" /><glyph d="M432 222Q432 120 377.5 55.5Q323 -9 235 -9Q148 -9 93.5 55.5Q39 120 39 222Q39 324 93.5 388.5Q148 453 235 453Q323 453 377.5 388.5Q432 324 432 222ZM382 222Q382 306 341.5 357.5Q301 409 235 409Q169 409 129 357.5Q89 306 89 222Q89 138 129 86.5Q169 35 235 35Q301 35 341.5 86.5Q382 138 382 222ZM141 571Q141 584 150.5 593.5Q160 603 174 603Q187 603 196.5 593.5Q206 584 206 571Q206 557 196.5 547.5Q187 538 174 538Q160 538 150.5 547.5Q141 557 141 571ZM266 571Q266 584 275.5 593.5Q285 603 298 603Q311 603 321 593.5Q331 584 331 571Q331 557 321 547.5Q311 538 298 538Q285 538 275.5 547.5Q266 557 266 571Z" glyph-name="odieresis" horiz-adv-x="471" unicode="&#246;" /><glyph d="M576 35Q623 35 656.5 60Q690 85 703 128L745 115Q729 59 685.5 25Q642 -9 576 -9Q518 -9 473.5 21.5Q429 52 405 105Q382 54 337.5 22.5Q293 -9 235 -9Q148 -9 93.5 55.5Q39 120 39 222Q39 324 93.5 388.5Q148 453 235 453Q294 453 338.5 421Q383 389 405 336Q427 388 471 420.5Q515 453 575 453Q663 453 709.5 391.5Q756 330 756 236V218H429Q430 134 471 84.5Q512 35 576 35ZM382 222Q382 306 341.5 357.5Q301 409 235 409Q169 409 129 357.5Q89 306 89 222Q89 138 129 86.5Q169 35 235 35Q301 35 341.5 86.5Q382 138 382 222ZM575 409Q515 409 476 367.5Q437 326 430 257H705Q704 315 672.5 362Q641 409 575 409Z" glyph-name="oe" horiz-adv-x="793" unicode="&#339;" /><glyph d="M303 4Q272 -50 261.5 -74Q251 -98 251 -117Q251 -131 258 -138Q265 -145 276 -145Q286 -145 294.5 -141.5Q303 -138 313 -131V-167Q303 -174 292 -178Q281 -182 268 -182Q243 -182 227 -167Q211 -152 211 -122Q211 -98 224 -70.5Q237 -43 263 4Z" glyph-name="ogonek" horiz-adv-x="500" unicode="&#731;" /><glyph d="M432 222Q432 120 377.5 55.5Q323 -9 235 -9Q148 -9 93.5 55.5Q39 120 39 222Q39 324 93.5 388.5Q148 453 235 453Q323 453 377.5 388.5Q432 324 432 222ZM382 222Q382 306 341.5 357.5Q301 409 235 409Q169 409 129 357.5Q89 306 89 222Q89 138 129 86.5Q169 35 235 35Q301 35 341.5 86.5Q382 138 382 222ZM213 520 126 650H179L262 520Z" glyph-name="ograve" horiz-adv-x="471" unicode="&#242;" /><glyph d="M432 222Q432 120 377.5 55.5Q323 -9 235 -9Q148 -9 93.5 55.5Q39 120 39 222Q39 324 93.5 388.5Q148 453 235 453Q323 453 377.5 388.5Q432 324 432 222ZM382 222Q382 306 341.5 357.5Q301 409 235 409Q169 409 129 357.5Q89 306 89 222Q89 138 129 86.5Q169 35 235 35Q301 35 341.5 86.5Q382 138 382 222ZM156 520 230 650H275L201 520ZM266 520 340 650H385L311 520Z" glyph-name="ohungarumlaut" horiz-adv-x="471" unicode="&#337;" /><glyph d="M432 222Q432 120 377.5 55.5Q323 -9 235 -9Q148 -9 93.5 55.5Q39 120 39 222Q39 324 93.5 388.5Q148 453 235 453Q323 453 377.5 388.5Q432 324 432 222ZM382 222Q382 306 341.5 357.5Q301 409 235 409Q169 409 129 357.5Q89 306 89 222Q89 138 129 86.5Q169 35 235 35Q301 35 341.5 86.5Q382 138 382 222ZM135 578H336V537H135Z" glyph-name="omacron" horiz-adv-x="471" unicode="&#333;" /><glyph d="M242 0H192V554L31 471V524L211 615H242Z" glyph-name="one" horiz-adv-x="330" unicode="1" /><glyph d="M73 47H261V554L79 460V512L280 615H311V47H474V0H73Z" glyph-name="one.lt" horiz-adv-x="520" /><glyph d="M177 285H133V564L47 520V565L149 615H177ZM122 0H77L494 614H539ZM551 240Q551 265 535.5 280.5Q520 296 494 296Q465 296 448 277Q431 258 426 230L386 241Q394 282 422.5 308.5Q451 335 494 335Q540 335 567.5 309Q595 283 595 241Q595 209 574.5 183Q554 157 529 130L443 39H598V0H384V30L497 151Q521 177 536 197.5Q551 218 551 240Z" glyph-name="onehalf" horiz-adv-x="653" unicode="&#189;" /><glyph d="M177 285H133V564L47 520V565L149 615H177ZM122 0H77L494 614H539ZM393 112H497V187H536V112H594V75H536V0H497V75H345V108L467 330H511Z" glyph-name="onequarter" horiz-adv-x="643" unicode="&#188;" /><glyph d="M148 285H105V564L19 520V565L120 615H148Z" glyph-name="onesuperior" horiz-adv-x="206" unicode="&#185;" /><glyph d="M206 425Q199 442 178.5 453Q158 464 134 464Q106 464 83.5 450.5Q61 437 61 409Q61 381 83.5 366.5Q106 352 134 352Q158 352 178.5 363Q199 374 206 391ZM206 321V346Q197 336 174.5 326Q152 316 126 316Q81 316 49 340.5Q17 365 17 408Q17 449 49.5 474.5Q82 500 128 500Q153 500 174.5 490.5Q196 481 206 471V517Q206 546 188 565Q170 584 136 584Q111 584 94.5 573Q78 562 70 539L31 550Q41 583 69.5 602.5Q98 622 138 622Q189 622 219 594Q249 566 249 518V321Z" glyph-name="ordfeminine" horiz-adv-x="284" unicode="&#170;" /><glyph d="M286 469Q286 401 249 358Q212 315 152 315Q92 315 54.5 358Q17 401 17 469Q17 537 54.5 579.5Q92 622 152 622Q212 622 249 579.5Q286 537 286 469ZM241 469Q241 519 216.5 551Q192 583 152 583Q112 583 87.5 551Q63 519 63 469Q63 418 87.5 386.5Q112 355 152 355Q192 355 216.5 386.5Q241 418 241 469Z" glyph-name="ordmasculine" horiz-adv-x="304" unicode="&#186;" /><glyph d="M93 222Q93 186 101 155Q109 124 123 100L335 372Q316 390 292 399.5Q268 409 240 409Q174 409 133.5 357.5Q93 306 93 222ZM240 35Q306 35 347 86.5Q388 138 388 222Q388 258 380 289Q372 320 358 343L146 72Q164 54 188 44.5Q212 35 240 35ZM240 -9Q204 -9 173 2.5Q142 14 118 35L73 -22L44 -1L93 62Q70 92 57 132.5Q44 173 44 222Q44 324 98.5 388.5Q153 453 240 453Q277 453 308 441.5Q339 430 363 409L405 462L434 441L388 382Q411 352 424 311.5Q437 271 437 222Q437 120 382.5 55.5Q328 -9 240 -9Z" glyph-name="oslash" horiz-adv-x="481" unicode="&#248;" /><glyph d="M93 222Q93 186 101 155Q109 124 123 100L335 372Q316 390 292 399.5Q268 409 240 409Q174 409 133.5 357.5Q93 306 93 222ZM240 35Q306 35 347 86.5Q388 138 388 222Q388 258 380 289Q372 320 358 343L146 72Q164 54 188 44.5Q212 35 240 35ZM240 -9Q204 -9 173 2.5Q142 14 118 35L73 -22L44 -1L93 62Q70 92 57 132.5Q44 173 44 222Q44 324 98.5 388.5Q153 453 240 453Q277 453 308 441.5Q339 430 363 409L405 462L434 441L388 382Q411 352 424 311.5Q437 271 437 222Q437 120 382.5 55.5Q328 -9 240 -9ZM210 520 293 650H346L259 520Z" glyph-name="oslashacute" horiz-adv-x="481" unicode="&#511;" /><glyph d="M432 222Q432 120 377.5 55.5Q323 -9 235 -9Q148 -9 93.5 55.5Q39 120 39 222Q39 324 93.5 388.5Q148 453 235 453Q323 453 377.5 388.5Q432 324 432 222ZM382 222Q382 306 341.5 357.5Q301 409 235 409Q169 409 129 357.5Q89 306 89 222Q89 138 129 86.5Q169 35 235 35Q301 35 341.5 86.5Q382 138 382 222ZM359 625Q359 578 342 549Q325 520 291 520Q254 520 231.5 552.5Q209 585 183 585Q166 585 156.5 568Q147 551 147 523H112Q112 570 129 599Q146 628 180 628Q218 628 240 595.5Q262 563 288 563Q305 563 314.5 580Q324 597 324 625Z" glyph-name="otilde" horiz-adv-x="471" unicode="&#245;" /><glyph d="M121 125Q143 82 178.5 59.5Q214 37 254 37Q324 37 363.5 89.5Q403 142 403 222Q403 302 363.5 354.5Q324 407 254 407Q214 407 178.5 384.5Q143 362 121 319ZM121 -170H71V444H121V378Q140 406 176.5 429.5Q213 453 259 453Q357 453 405 383Q453 313 453 222Q453 131 405 61Q357 -9 259 -9Q213 -9 176.5 14.5Q140 38 121 66Z" glyph-name="p" horiz-adv-x="492" unicode="p" /><glyph d="M324 614H367V-90H324ZM213 339Q144 339 81 372Q18 405 18 477Q18 549 81 581.5Q144 614 213 614H257V-90H213Z" glyph-name="paragraph" horiz-adv-x="446" unicode="&#182;" /><glyph d="M30 283Q30 420 103 519Q176 618 298 650V600Q210 578 144.5 494.5Q79 411 79 283Q79 155 144.5 71.5Q210 -12 298 -34V-84Q176 -52 103 47Q30 146 30 283Z" glyph-name="parenleft" horiz-adv-x="325" unicode="(" /><glyph d="M30 299Q30 436 103 535Q176 634 298 666V616Q210 594 144.5 510.5Q79 427 79 299Q79 172 144.5 88Q210 4 298 -18V-68Q176 -36 103 63Q30 162 30 299Z" glyph-name="parenleft.cap" horiz-adv-x="325" /><glyph d="M27 650Q149 618 222 519Q295 420 295 283Q295 146 222 47Q149 -52 27 -84V-34Q115 -12 180.5 71.5Q246 155 246 283Q246 411 180.5 494.5Q115 578 27 600V650Z" glyph-name="parenright" horiz-adv-x="325" unicode=")" /><glyph d="M27 666Q149 634 222 535Q295 436 295 299Q295 162 222 63Q149 -36 27 -68V-18Q115 4 180.5 88Q246 172 246 299Q246 427 180.5 510.5Q115 594 27 616V666Z" glyph-name="parenright.cap" horiz-adv-x="325" /><glyph d="M291 495Q291 443 253.5 406Q216 369 164 369Q111 369 74 406Q37 443 37 495Q37 548 74 585.5Q111 623 164 623Q216 623 253.5 585.5Q291 548 291 495ZM488 614H531L133 0H90ZM78 495Q78 460 103 435Q128 410 164 410Q200 410 225 435Q250 460 250 495Q250 531 225 556.5Q200 582 164 582Q128 582 103 556.5Q78 531 78 495ZM583 119Q583 66 546 28.5Q509 -9 457 -9Q405 -9 367.5 28.5Q330 66 330 119Q330 171 367.5 208Q405 245 457 245Q509 245 546 208Q583 171 583 119ZM542 119Q542 154 517 179Q492 204 457 204Q421 204 396 179Q371 154 371 119Q371 83 396 57.5Q421 32 457 32Q492 32 517 57.5Q542 83 542 119Z" glyph-name="percent" horiz-adv-x="621" unicode="%" /><glyph d="M19 500Q19 551 54.5 587Q90 623 140 623Q191 623 227 587Q263 551 263 500Q263 449 227 413.5Q191 378 140 378Q90 378 54.5 413.5Q19 449 19 500ZM438 614H481L83 0H40ZM57 500Q57 466 81.5 441.5Q106 417 140 417Q175 417 200 441.5Q225 466 225 500Q225 535 200 559.5Q175 584 140 584Q106 584 81.5 559.5Q57 535 57 500ZM502 114Q502 63 466.5 27Q431 -9 380 -9Q329 -9 293.5 27Q258 63 258 114Q258 165 293.5 200.5Q329 236 380 236Q431 236 466.5 200.5Q502 165 502 114ZM464 114Q464 148 439.5 172.5Q415 197 380 197Q345 197 320.5 172.5Q296 148 296 114Q296 79 320.5 54.5Q345 30 380 30Q415 30 439.5 54.5Q464 79 464 114Z" glyph-name="percent.lt" horiz-adv-x="520" /><glyph d="M33 35Q33 51 44 62.5Q55 74 70 74Q86 74 97 62.5Q108 51 108 35Q108 19 97 8Q86 -3 70 -3Q55 -3 44 8Q33 19 33 35Z" glyph-name="period" horiz-adv-x="141" unicode="." /><glyph d="M92 35Q92 51 103 62.5Q114 74 130 74Q146 74 157 62.5Q168 51 168 35Q168 19 157 8Q146 -3 130 -3Q114 -3 103 8Q92 19 92 35Z" glyph-name="period.tab" horiz-adv-x="260" /><glyph d="M38 261Q38 277 49 288.5Q60 300 75 300Q91 300 102 288.5Q113 277 113 261Q113 245 102 234Q91 223 75 223Q60 223 49 234Q38 245 38 261Z" glyph-name="periodcentered" horiz-adv-x="151" unicode="&#183;" /><glyph d="M38 301Q38 317 49 328.5Q60 340 75 340Q91 340 102 328.5Q113 317 113 301Q113 285 102 274Q91 263 75 263Q60 263 49 274Q38 285 38 301Z" glyph-name="periodcentered.cap" horiz-adv-x="151" /><glyph d="M164 369Q111 369 74 406Q37 443 37 495Q37 548 74 585.5Q111 623 164 623Q216 623 253.5 585.5Q291 548 291 495Q291 443 253.5 406Q216 369 164 369ZM488 614H531L133 0H90ZM164 582Q128 582 103 556.5Q78 531 78 495Q78 460 103 435Q128 410 164 410Q200 410 225 435Q250 460 250 495Q250 531 225 556.5Q200 582 164 582ZM583 119Q583 66 546 28.5Q509 -9 457 -9Q405 -9 367.5 28.5Q330 66 330 119Q330 171 367.5 208Q405 245 457 245Q509 245 546 208Q583 171 583 119ZM870 119Q870 66 833 28.5Q796 -9 744 -9Q691 -9 653.5 28.5Q616 66 616 119Q616 171 653.5 208Q691 245 744 245Q796 245 833 208Q870 171 870 119ZM542 119Q542 154 517 179Q492 204 457 204Q421 204 396 179Q371 154 371 119Q371 83 396 57.5Q421 32 457 32Q492 32 517 57.5Q542 83 542 119ZM829 119Q829 154 804 179Q779 204 744 204Q708 204 682.5 179Q657 154 657 119Q657 83 682.5 57.5Q708 32 744 32Q779 32 804 57.5Q829 83 829 119Z" glyph-name="perthousand" horiz-adv-x="907" unicode="&#8240;" /><glyph d="M20 500Q20 551 55.5 587Q91 623 142 623Q193 623 229 587Q265 551 265 500Q265 449 229 413.5Q193 378 142 378Q91 378 55.5 413.5Q20 449 20 500ZM439 614H483L85 0H41ZM59 500Q59 466 83.5 441.5Q108 417 142 417Q177 417 201.5 441.5Q226 466 226 500Q226 535 201.5 559.5Q177 584 142 584Q108 584 83.5 559.5Q59 535 59 500ZM504 114Q504 63 468.5 27Q433 -9 382 -9Q331 -9 295 27Q259 63 259 114Q259 165 295 200.5Q331 236 382 236Q433 236 468.5 200.5Q504 165 504 114ZM780 114Q780 63 744.5 27Q709 -9 659 -9Q608 -9 572 27Q536 63 536 114Q536 165 572 200.5Q608 236 659 236Q709 236 744.5 200.5Q780 165 780 114ZM465 114Q465 148 440.5 172.5Q416 197 382 197Q347 197 322.5 172.5Q298 148 298 114Q298 79 322.5 54.5Q347 30 382 30Q416 30 440.5 54.5Q465 79 465 114ZM742 114Q742 148 717.5 172.5Q693 197 659 197Q624 197 599 172.5Q574 148 574 114Q574 79 599 54.5Q624 30 659 30Q693 30 717.5 54.5Q742 79 742 114Z" glyph-name="perthousand.lt" horiz-adv-x="800" /><glyph d="M278 273V109H235V273H71V316H235V480H278V316H443V273Z" glyph-name="plus" horiz-adv-x="514" unicode="+" /><glyph d="M281 273V109H238V273H74V316H238V480H281V316H446V273Z" glyph-name="plus.lt" horiz-adv-x="520" /><glyph d="M279 327V201H237V327H73V369H237V495H279V369H443V327ZM73 147H443V104H73Z" glyph-name="plusminus" horiz-adv-x="516" unicode="&#177;" /><glyph d="M281 327V201H238V327H75V369H238V495H281V369H444V327ZM75 147H444V104H75Z" glyph-name="plusminus.lt" horiz-adv-x="520" /><glyph d="M670 307Q670 170 576.5 80.5Q483 -9 354 -9Q225 -9 132 80.5Q39 170 39 307Q39 444 132 533.5Q225 623 354 623Q483 623 576.5 533.5Q670 444 670 307ZM638 307Q638 430 554 510.5Q470 591 354 591Q238 591 154 510.5Q70 430 70 307Q70 184 154 103.5Q238 23 354 23Q470 23 554 103.5Q638 184 638 307ZM294 270V124H247V493H388Q444 493 477 464.5Q510 436 510 382Q510 328 477 299Q444 270 388 270ZM387 313Q425 313 444.5 331.5Q464 350 464 382Q464 413 444.5 432Q425 451 387 451H294V313Z" glyph-name="published" horiz-adv-x="708" /><glyph d="M371 66Q352 38 315.5 14.5Q279 -9 233 -9Q135 -9 87 61Q39 131 39 222Q39 313 87 383Q135 453 233 453Q279 453 315.5 429.5Q352 406 371 378V444H421V-170H371ZM371 319Q349 362 313.5 384.5Q278 407 238 407Q168 407 128.5 354.5Q89 302 89 222Q89 142 128.5 89.5Q168 37 238 37Q278 37 313.5 59.5Q349 82 371 125Z" glyph-name="q" horiz-adv-x="492" unicode="q" /><glyph d="M217 623Q299 623 347 577Q395 531 395 456Q395 402 361 359.5Q327 317 291 278Q267 252 258 233Q249 214 248 193H201Q203 227 215.5 251Q228 275 254 304Q282 335 313.5 371Q345 407 345 456Q345 513 309.5 544.5Q274 576 217 576Q151 576 115 536.5Q79 497 69 434L21 447Q36 524 86 573.5Q136 623 217 623ZM185 35Q185 51 196 62.5Q207 74 223 74Q238 74 249 62.5Q260 51 260 35Q260 19 249 8Q238 -3 223 -3Q207 -3 196 8Q185 19 185 35Z" glyph-name="question" horiz-adv-x="422" unicode="?" /><glyph d="M237 483Q237 467 226 455.5Q215 444 199 444Q184 444 173 455.5Q162 467 162 483Q162 499 173 510Q184 521 199 521Q215 521 226 510Q237 499 237 483ZM205 -105Q123 -105 75 -59Q27 -13 27 62Q27 116 61 158.5Q95 201 131 240Q155 266 164 285Q173 304 174 325H221Q219 291 206.5 267Q194 243 168 214Q140 183 108.5 147Q77 111 77 62Q77 5 112.5 -26.5Q148 -58 205 -58Q271 -58 307 -18.5Q343 21 353 84L401 71Q386 -6 336 -55.5Q286 -105 205 -105Z" glyph-name="questiondown" horiz-adv-x="422" unicode="&#191;" /><glyph d="M237 579Q237 563 226 551.5Q215 540 199 540Q184 540 173 551.5Q162 563 162 579Q162 595 173 606Q184 617 199 617Q215 617 226 606Q237 595 237 579ZM205 -9Q123 -9 75 37Q27 83 27 158Q27 212 61 254.5Q95 297 131 336Q155 362 164 381Q173 400 174 421H221Q219 387 206.5 363Q194 339 168 310Q140 279 108.5 243Q77 207 77 158Q77 101 112.5 69.5Q148 38 205 38Q271 38 307 77.5Q343 117 353 180L401 167Q386 90 336 40.5Q286 -9 205 -9Z" glyph-name="questiondown.cap" horiz-adv-x="422" /><glyph d="M40 614H85V418H40ZM136 614H181V418H136Z" glyph-name="quotedbl" horiz-adv-x="221" unicode="&quot;" /><glyph d="M195 -1Q182 1 173 10Q164 19 164 35Q164 51 174.5 62Q185 73 201 73Q217 73 228 62Q239 51 239 33Q239 21 235 10Q231 -1 225 -11L178 -98H143ZM72 -1Q59 1 50 10Q41 19 41 35Q41 51 51.5 62Q62 73 78 73Q94 73 105 62Q116 51 116 33Q116 21 112 10Q108 -1 102 -11L55 -98H20Z" glyph-name="quotedblbase" horiz-adv-x="264" unicode="&#8222;" /><glyph d="M192 517Q205 515 214 506Q223 497 223 481Q223 465 212.5 454Q202 443 186 443Q170 443 159 454Q148 465 148 483Q148 495 152 506Q156 517 162 527L209 614H244ZM69 517Q82 515 91 506Q100 497 100 481Q100 465 89.5 454Q79 443 63 443Q47 443 36 454Q25 465 25 483Q25 495 29 506Q33 517 39 527L86 614H121Z" glyph-name="quotedblleft" horiz-adv-x="264" unicode="&#8220;" /><glyph d="M195 549Q182 551 173 560Q164 569 164 585Q164 601 174.5 612Q185 623 201 623Q217 623 228 612Q239 601 239 583Q239 571 235 560Q231 549 225 539L178 452H143ZM72 549Q59 551 50 560Q41 569 41 585Q41 601 51.5 612Q62 623 78 623Q94 623 105 612Q116 601 116 583Q116 571 112 560Q108 549 102 539L55 452H20Z" glyph-name="quotedblright" horiz-adv-x="264" unicode="&#8221;" /><glyph d="M69 517Q82 515 91 506Q100 497 100 481Q100 465 89.5 454Q79 443 63 443Q47 443 36 454Q25 465 25 483Q25 495 29 506Q33 517 39 527L86 614H121Z" glyph-name="quoteleft" horiz-adv-x="141" unicode="&#8216;" /><glyph d="M72 549Q59 551 50 560Q41 569 41 585Q41 601 51.5 612Q62 623 78 623Q94 623 105 612Q116 601 116 583Q116 571 112 560Q108 549 102 539L55 452H20Z" glyph-name="quoteright" horiz-adv-x="141" unicode="&#8217;" /><glyph d="M72 -1Q59 1 50 10Q41 19 41 35Q41 51 51.5 62Q62 73 78 73Q94 73 105 62Q116 51 116 33Q116 21 112 10Q108 -1 102 -11L55 -98H20Z" glyph-name="quotesinglbase" horiz-adv-x="126" unicode="&#8218;" /><glyph d="M40 614H86V418H40Z" glyph-name="quotesingle" horiz-adv-x="126" unicode="'" /><glyph d="M280 398Q271 402 261 404Q251 406 239 406Q199 406 168 379.5Q137 353 121 310V0H71V444H121V373Q136 406 168 429.5Q200 453 241 453Q254 453 263.5 451Q273 449 280 447Z" glyph-name="r" horiz-adv-x="301" unicode="r" /><glyph d="M280 398Q271 402 261 404Q251 406 239 406Q199 406 168 379.5Q137 353 121 310V0H71V444H121V373Q136 406 168 429.5Q200 453 241 453Q254 453 263.5 451Q273 449 280 447ZM146 520 229 650H282L195 520Z" glyph-name="racute" horiz-adv-x="301" unicode="&#341;" /><glyph d="M280 398Q271 402 261 404Q251 406 239 406Q199 406 168 379.5Q137 353 121 310V0H71V444H121V373Q136 406 168 429.5Q200 453 241 453Q254 453 263.5 451Q273 449 280 447ZM197 515H153L61 645H107L175 550L243 645H289Z" glyph-name="rcaron" horiz-adv-x="301" unicode="&#345;" /><glyph d="M280 398Q271 402 261 404Q251 406 239 406Q199 406 168 379.5Q137 353 121 310V0H71V444H121V373Q136 406 168 429.5Q200 453 241 453Q254 453 263.5 451Q273 449 280 447ZM88 -116Q76 -114 67 -105.5Q58 -97 58 -82Q58 -67 68.5 -57Q79 -47 95 -47Q110 -47 120 -57.5Q130 -68 130 -84Q130 -96 125.5 -105.5Q121 -115 116 -125L85 -183H52Z" glyph-name="rcommaaccent" horiz-adv-x="301" unicode="&#343;" /><glyph d="M390 440Q390 361 336.5 309Q283 257 209 257Q135 257 81.5 309Q28 361 28 440Q28 519 81.5 571Q135 623 209 623Q283 623 336.5 571Q390 519 390 440ZM362 440Q362 507 317 551Q272 595 209 595Q146 595 101 551Q56 507 56 440Q56 372 101 328Q146 284 209 284Q272 284 317 328Q362 372 362 440ZM221 450Q237 450 245.5 458.5Q254 467 254 479Q254 491 245.5 499.5Q237 508 221 508H175V450ZM175 420V346H142V538H220Q250 538 268.5 522.5Q287 507 287 479Q287 456 274 441Q261 426 241 422L294 346H255L205 420Z" glyph-name="registered" horiz-adv-x="418" unicode="&#174;" /><glyph d="M331 580Q331 546 307.5 522.5Q284 499 250 499Q216 499 192.5 522.5Q169 546 169 580Q169 614 192.5 637.5Q216 661 250 661Q284 661 307.5 637.5Q331 614 331 580ZM299 580Q299 601 284.5 615Q270 629 250 629Q230 629 215.5 615Q201 601 201 580Q201 559 215.5 545Q230 531 250 531Q270 531 284.5 545Q299 559 299 580Z" glyph-name="ring" horiz-adv-x="500" unicode="&#730;" /><glyph d="M331 728Q331 694 307.5 671Q284 648 250 648Q216 648 192.5 671Q169 694 169 728Q169 762 192.5 785.5Q216 809 250 809Q284 809 307.5 785.5Q331 762 331 728ZM299 728Q299 749 284.5 763.5Q270 778 250 778Q230 778 215.5 763.5Q201 749 201 728Q201 708 215.5 693.5Q230 679 250 679Q270 679 284.5 693.5Q299 708 299 728Z" glyph-name="ring.cap" horiz-adv-x="500" /><glyph d="M75 118Q88 75 122 54.5Q156 34 202 34Q247 34 279 54.5Q311 75 311 117Q311 145 291.5 164Q272 183 230 195L147 218Q101 231 72 255.5Q43 280 43 329Q43 386 88.5 419.5Q134 453 195 453Q258 453 299.5 424.5Q341 396 356 345L311 331Q298 371 269.5 390.5Q241 410 195 410Q154 410 122.5 389.5Q91 369 91 331Q91 300 111 285Q131 270 171 260L249 238Q306 223 332.5 192.5Q359 162 359 119Q359 59 313.5 25Q268 -9 201 -9Q139 -9 91.5 20.5Q44 50 29 103Z" glyph-name="s" horiz-adv-x="399" unicode="s" /><glyph d="M75 118Q88 75 122 54.5Q156 34 202 34Q247 34 279 54.5Q311 75 311 117Q311 145 291.5 164Q272 183 230 195L147 218Q101 231 72 255.5Q43 280 43 329Q43 386 88.5 419.5Q134 453 195 453Q258 453 299.5 424.5Q341 396 356 345L311 331Q298 371 269.5 390.5Q241 410 195 410Q154 410 122.5 389.5Q91 369 91 331Q91 300 111 285Q131 270 171 260L249 238Q306 223 332.5 192.5Q359 162 359 119Q359 59 313.5 25Q268 -9 201 -9Q139 -9 91.5 20.5Q44 50 29 103ZM168 520 251 650H304L217 520Z" glyph-name="sacute" horiz-adv-x="399" unicode="&#347;" /><glyph d="M75 118Q88 75 122 54.5Q156 34 202 34Q247 34 279 54.5Q311 75 311 117Q311 145 291.5 164Q272 183 230 195L147 218Q101 231 72 255.5Q43 280 43 329Q43 386 88.5 419.5Q134 453 195 453Q258 453 299.5 424.5Q341 396 356 345L311 331Q298 371 269.5 390.5Q241 410 195 410Q154 410 122.5 389.5Q91 369 91 331Q91 300 111 285Q131 270 171 260L249 238Q306 223 332.5 192.5Q359 162 359 119Q359 59 313.5 25Q268 -9 201 -9Q139 -9 91.5 20.5Q44 50 29 103ZM219 515H175L83 645H129L197 550L265 645H311Z" glyph-name="scaron" horiz-adv-x="399" unicode="&#353;" /><glyph d="M75 118Q88 75 122 54.5Q156 34 202 34Q247 34 279 54.5Q311 75 311 117Q311 145 291.5 164Q272 183 230 195L147 218Q101 231 72 255.5Q43 280 43 329Q43 386 88.5 419.5Q134 453 195 453Q258 453 299.5 424.5Q341 396 356 345L311 331Q298 371 269.5 390.5Q241 410 195 410Q154 410 122.5 389.5Q91 369 91 331Q91 300 111 285Q131 270 171 260L249 238Q306 223 332.5 192.5Q359 162 359 119Q359 59 313.5 25Q268 -9 201 -9Q139 -9 91.5 20.5Q44 50 29 103ZM116 -175 175 -48H223L162 -175Z" glyph-name="scedilla" horiz-adv-x="399" unicode="&#351;" /><glyph d="M75 118Q88 75 122 54.5Q156 34 202 34Q247 34 279 54.5Q311 75 311 117Q311 145 291.5 164Q272 183 230 195L147 218Q101 231 72 255.5Q43 280 43 329Q43 386 88.5 419.5Q134 453 195 453Q258 453 299.5 424.5Q341 396 356 345L311 331Q298 371 269.5 390.5Q241 410 195 410Q154 410 122.5 389.5Q91 369 91 331Q91 300 111 285Q131 270 171 260L249 238Q306 223 332.5 192.5Q359 162 359 119Q359 59 313.5 25Q268 -9 201 -9Q139 -9 91.5 20.5Q44 50 29 103ZM311 513H265L197 610L129 513H83L175 644H219Z" glyph-name="scircumflex" horiz-adv-x="399" unicode="&#349;" /><glyph d="M75 118Q88 75 122 54.5Q156 34 202 34Q247 34 279 54.5Q311 75 311 117Q311 145 291.5 164Q272 183 230 195L147 218Q101 231 72 255.5Q43 280 43 329Q43 386 88.5 419.5Q134 453 195 453Q258 453 299.5 424.5Q341 396 356 345L311 331Q298 371 269.5 390.5Q241 410 195 410Q154 410 122.5 389.5Q91 369 91 331Q91 300 111 285Q131 270 171 260L249 238Q306 223 332.5 192.5Q359 162 359 119Q359 59 313.5 25Q268 -9 201 -9Q139 -9 91.5 20.5Q44 50 29 103ZM196 -116Q184 -114 175 -105.5Q166 -97 166 -82Q166 -67 176.5 -57Q187 -47 203 -47Q218 -47 228 -57.5Q238 -68 238 -84Q238 -96 233.5 -105.5Q229 -115 224 -125L193 -183H160Z" glyph-name="scommaaccent" horiz-adv-x="399" unicode="&#537;" /><glyph d="M317 120Q339 129 354 148Q369 167 369 194Q369 223 348.5 242.5Q328 262 300 281L126 400Q104 391 89.5 372Q75 353 75 326Q75 297 95.5 278Q116 259 144 240ZM223 580Q182 580 153.5 560Q125 540 125 502Q125 471 138 455Q151 439 179 420L325 321Q364 295 390 266.5Q416 238 416 195Q416 158 397 129.5Q378 101 349 86Q357 73 361.5 56.5Q366 40 366 20Q366 -37 323.5 -69.5Q281 -102 220 -102Q159 -102 115.5 -72.5Q72 -43 57 10L103 24Q115 -16 143 -38Q171 -60 220 -60Q261 -60 289.5 -39.5Q318 -19 318 19Q318 50 305 65.5Q292 81 264 100L118 200Q79 226 53 254Q27 282 27 325Q27 362 46 389.5Q65 417 95 433Q87 446 82 463Q77 480 77 500Q77 558 119.5 590.5Q162 623 223 623Q284 623 327 593Q370 563 385 511L340 497Q328 537 299.5 558.5Q271 580 223 580Z" glyph-name="section" horiz-adv-x="443" unicode="&#167;" /><glyph d="M33 364Q33 380 44 391.5Q55 403 70 403Q86 403 97 391.5Q108 380 108 364Q108 348 97 337Q86 326 70 326Q55 326 44 337Q33 348 33 364ZM63 -1Q51 1 42 10Q33 19 33 35Q33 51 43.5 62Q54 73 70 73Q86 73 97 62Q108 51 108 33Q108 21 103.5 10Q99 -1 93 -11L45 -101H9Z" glyph-name="semicolon" horiz-adv-x="141" unicode=";" /><glyph d="M93 364Q93 380 104 391.5Q115 403 130 403Q146 403 157 391.5Q168 380 168 364Q168 348 157 337Q146 326 130 326Q115 326 104 337Q93 348 93 364ZM123 -1Q111 1 102 10Q93 19 93 35Q93 51 103.5 62Q114 73 130 73Q146 73 157 62Q168 51 168 33Q168 21 163.5 10Q159 -1 153 -11L105 -101H69Z" glyph-name="semicolon.tab" horiz-adv-x="260" /><glyph d="M180 0H128L354 567H18V614H407V573Z" glyph-name="seven" horiz-adv-x="429" unicode="7" /><glyph d="M236 0H184L413 567H46V614H465V573Z" glyph-name="seven.lt" horiz-adv-x="520" /><glyph d="M398 475Q383 520 351.5 549Q320 578 264 578Q191 578 140 505.5Q89 433 89 310Q89 302 89.5 289Q90 276 91 266Q104 325 153 362.5Q202 400 262 400Q346 400 402.5 340.5Q459 281 459 197Q459 111 402 51Q345 -9 259 -9Q195 -9 149 23Q103 55 78 108Q58 150 50 199Q42 248 42 299Q42 453 106.5 538Q171 623 264 623Q338 623 382 585.5Q426 548 445 488ZM107 196Q107 128 150 82Q193 36 259 36Q323 36 367 81.5Q411 127 411 196Q411 265 367 310.5Q323 356 259 356Q193 356 150 310.5Q107 265 107 196Z" glyph-name="six" horiz-adv-x="495" unicode="6" /><glyph d="M418 475Q404 520 370.5 549Q337 578 280 578Q205 578 152.5 505.5Q100 433 100 310Q100 301 100.5 289Q101 277 102 266Q116 326 165.5 363Q215 400 278 400Q365 400 422.5 340.5Q480 281 480 197Q480 111 421.5 51Q363 -9 275 -9Q209 -9 162.5 23Q116 55 90 108Q69 150 61 199Q53 248 53 299Q53 453 119 538Q185 623 280 623Q357 623 401.5 586Q446 549 464 489ZM118 196Q118 128 163 82Q208 36 275 36Q341 36 386.5 81.5Q432 127 432 196Q432 265 386.5 310.5Q341 356 275 356Q208 356 163 310.5Q118 265 118 196Z" glyph-name="six.lt" horiz-adv-x="520" /><glyph d="M253 650H301L53 -84H5Z" glyph-name="slash" horiz-adv-x="306" unicode="/" /><glyph d="M253 670H301L53 -64H5Z" glyph-name="slash.cap" horiz-adv-x="306" /><glyph glyph-name="space" horiz-adv-x="221" unicode=" " /><glyph glyph-name="space.tab" horiz-adv-x="260" /><glyph d="M452 0H31V45H96Q107 62 114 82.5Q121 103 121 136V282H31V323H121V423Q121 515 169.5 569Q218 623 295 623Q359 623 399 590Q439 557 452 504L407 490Q397 530 370 554Q343 578 295 578Q239 578 204 538Q169 498 169 423V323H338V282H169V136Q169 110 162.5 85Q156 60 145 45H452Z" glyph-name="sterling" horiz-adv-x="483" unicode="&#163;" /><glyph d="M469 0H48V45H113Q124 62 131 82.5Q138 103 138 136V282H48V323H138V423Q138 515 186.5 569Q235 623 312 623Q376 623 416 590Q456 557 469 504L424 490Q414 530 386.5 554Q359 578 312 578Q256 578 221 538Q186 498 186 423V323H355V282H186V136Q186 110 179.5 85Q173 60 162 45H469Z" glyph-name="sterling.lt" horiz-adv-x="520" /><glyph d="M91 401H16V444H91V558H140V444H255V401H140V106Q140 69 157 52.5Q174 36 205 36Q222 36 235 40.5Q248 45 261 52L273 11Q260 3 239 -3Q218 -9 200 -9Q151 -9 121 17.5Q91 44 91 100Z" glyph-name="t" horiz-adv-x="297" unicode="t" /><glyph d="M275 11Q262 3 241 -3Q220 -9 202 -9Q153 -9 122.5 17.5Q92 44 92 100V241H28V282H92V401H18V444H92V558H142V444H256V401H142V282H236V241H142V106Q142 69 159 52.5Q176 36 207 36Q223 36 236.5 40.5Q250 45 263 52L275 11Z" glyph-name="tbar" horiz-adv-x="299" unicode="&#359;" /><glyph d="M91 401H16V444H91V558H140V444H255V401H140V106Q140 69 157 52.5Q174 36 205 36Q222 36 235 40.5Q248 45 261 52L273 11Q260 3 239 -3Q218 -9 200 -9Q151 -9 121 17.5Q91 44 91 100ZM197 500 230 660H270L238 500Z" glyph-name="tcaron" horiz-adv-x="297" unicode="&#357;" /><glyph d="M91 401H16V444H91V558H140V444H255V401H140V106Q140 69 157 52.5Q174 36 205 36Q222 36 235 40.5Q248 45 261 52L273 11Q260 3 239 -3Q218 -9 200 -9Q151 -9 121 17.5Q91 44 91 100ZM172 -116Q160 -114 151 -105.5Q142 -97 142 -82Q142 -67 152.5 -57Q163 -47 179 -47Q194 -47 204 -57.5Q214 -68 214 -84Q214 -96 209.5 -105.5Q205 -115 200 -125L169 -183H136Z" glyph-name="tcommaaccent" horiz-adv-x="297" unicode="&#355;" /><glyph d="M121 125Q143 82 178.5 59.5Q214 37 254 37Q324 37 363.5 89.5Q403 142 403 222Q403 302 363.5 354.5Q324 407 254 407Q214 407 178.5 384.5Q143 362 121 319ZM121 -170H71V650H121V378Q140 406 176.5 429.5Q213 453 259 453Q357 453 405 383Q453 313 453 222Q453 131 405 61Q357 -9 259 -9Q213 -9 176.5 14.5Q140 38 121 66Z" glyph-name="thorn" horiz-adv-x="492" unicode="&#254;" /><glyph d="M182 338H228Q282 338 319.5 369.5Q357 401 357 457Q357 509 320.5 543Q284 577 225 577Q171 577 133 544Q95 511 83 456L37 468Q52 537 102 580Q152 623 225 623Q309 623 358 576.5Q407 530 407 459Q407 404 374 364.5Q341 325 295 316Q346 307 382.5 268.5Q419 230 419 168Q419 96 368 43.5Q317 -9 227 -9Q144 -9 91.5 35Q39 79 26 152L73 165Q86 105 125 71Q164 37 227 37Q290 37 329.5 73Q369 109 369 167Q369 227 327.5 260Q286 293 229 293H182Z" glyph-name="three" horiz-adv-x="455" unicode="3" /><glyph d="M211 338H259Q314 338 354 369.5Q394 401 394 457Q394 509 355.5 543Q317 577 257 577Q200 577 160 544Q120 511 109 456L62 468Q77 537 129 580Q181 623 256 623Q343 623 393.5 576.5Q444 530 444 459Q444 404 409.5 364.5Q375 325 328 316Q379 307 417.5 268.5Q456 230 456 168Q456 96 403 43.5Q350 -9 258 -9Q173 -9 118.5 35Q64 79 50 152L98 165Q111 105 152.5 71Q194 37 258 37Q323 37 364.5 73Q406 109 406 167Q406 227 362.5 260Q319 293 260 293H211Z" glyph-name="three.lt" horiz-adv-x="520" /><glyph d="M164 0H118L535 614H581ZM136 470H160Q185 470 203 484.5Q221 499 221 526Q221 550 204 565.5Q187 581 160 581Q135 581 117.5 565.5Q100 550 95 523L56 534Q65 572 92.5 595.5Q120 619 160 619Q208 619 235.5 593Q263 567 263 527Q263 500 247 479.5Q231 459 209 453Q235 446 252 426Q269 406 269 377Q269 336 240 307.5Q211 279 161 279Q118 279 87.5 302Q57 325 50 368L90 378Q95 350 113.5 333.5Q132 317 161 317Q190 317 208 333.5Q226 350 226 377Q226 405 207 420Q188 435 161 435H136ZM434 112H538V187H578V112H635V75H578V0H538V75H386V108L508 330H552Z" glyph-name="threequarters" horiz-adv-x="685" unicode="&#190;" /><glyph d="M110 471H134Q159 471 177 485.5Q195 500 195 527Q195 550 178 565.5Q161 581 134 581Q109 581 91.5 566Q74 551 69 524L30 534Q39 573 66.5 596.5Q94 620 134 620Q182 620 209.5 594Q237 568 237 528Q237 501 221 480.5Q205 460 183 454Q209 447 226 426.5Q243 406 243 378Q243 337 214 308.5Q185 280 135 280Q92 280 61.5 303Q31 326 24 368L64 379Q69 351 87.5 334.5Q106 318 135 318Q164 318 182 334Q200 350 200 378Q200 405 181 420.5Q162 436 135 436H110Z" glyph-name="threesuperior" horiz-adv-x="270" unicode="&#179;" /><glyph d="M373 625Q373 578 356 549Q339 520 305 520Q268 520 245.5 552.5Q223 585 197 585Q180 585 170.5 568Q161 551 161 523H126Q126 570 143 599Q160 628 194 628Q232 628 254 595.5Q276 563 302 563Q319 563 328.5 580Q338 597 338 625Z" glyph-name="tilde" horiz-adv-x="500" unicode="&#732;" /><glyph d="M375 769Q375 722 357.5 693.5Q340 665 306 665Q268 665 246 697Q224 729 196 729Q178 729 169 712.5Q160 696 160 668H124Q124 714 141.5 743Q159 772 193 772Q232 772 253.5 740Q275 708 303 708Q321 708 330 724.5Q339 741 340 769Z" glyph-name="tilde.cap" horiz-adv-x="500" /><glyph d="M16 614H227V581H141V360H102V581H16ZM385 360 309 548V360H272V614H318L400 412L481 614H527V360H489V548L413 360Z" glyph-name="trademark" horiz-adv-x="574" unicode="&#8482;" /><glyph d="M354 454Q354 510 319 543Q284 576 227 576Q161 576 125 536Q89 496 79 434L30 447Q46 524 96 573.5Q146 623 227 623Q309 623 356.5 576Q404 529 404 454Q404 394 365 344.5Q326 295 280 244L97 47H418V0H26V35L243 271Q291 323 322.5 364.5Q354 406 354 454Z" glyph-name="two" horiz-adv-x="444" unicode="2" /><glyph d="M389 454Q389 510 352.5 543Q316 576 257 576Q189 576 150.5 534.5Q112 493 105 429L57 442Q69 521 121 572Q173 623 257 623Q341 623 389.5 576Q438 529 438 454Q438 394 398.5 344.5Q359 295 312 244L124 47H453V0H52V35L274 271Q323 323 356 364.5Q389 406 389 454Z" glyph-name="two.lt" horiz-adv-x="520" /><glyph d="M190 525Q190 550 174 565Q158 580 132 580Q104 580 87 561.5Q70 543 64 515L25 526Q33 566 61.5 593Q90 620 133 620Q179 620 206 594Q233 568 233 525Q233 494 213 468Q193 442 168 415L82 323H236V285H23V314L135 436Q160 462 175 482.5Q190 503 190 525Z" glyph-name="twosuperior" horiz-adv-x="263" unicode="&#178;" /><glyph d="M410 0H361V71Q341 40 304 15.5Q267 -9 220 -9Q145 -9 105.5 35.5Q66 80 66 150V444H115V157Q115 106 142.5 71.5Q170 37 229 37Q275 37 310 65Q345 93 361 133V444H410Z" glyph-name="u" horiz-adv-x="481" unicode="u" /><glyph d="M410 0H361V71Q341 40 304 15.5Q267 -9 220 -9Q145 -9 105.5 35.5Q66 80 66 150V444H115V157Q115 106 142.5 71.5Q170 37 229 37Q275 37 310 65Q345 93 361 133V444H410ZM210 520 293 650H346L259 520Z" glyph-name="uacute" horiz-adv-x="481" unicode="&#250;" /><glyph d="M410 0H361V71Q341 40 304 15.5Q267 -9 220 -9Q145 -9 105.5 35.5Q66 80 66 150V444H115V157Q115 106 142.5 71.5Q170 37 229 37Q275 37 310 65Q345 93 361 133V444H410ZM239 506Q195 506 166 537Q137 568 137 626H177Q177 587 194 565Q211 543 239 543Q267 543 284 565Q301 587 301 626H341Q341 568 312 537Q283 506 239 506Z" glyph-name="ubreve" horiz-adv-x="481" unicode="&#365;" /><glyph d="M410 0H361V71Q341 40 304 15.5Q267 -9 220 -9Q145 -9 105.5 35.5Q66 80 66 150V444H115V157Q115 106 142.5 71.5Q170 37 229 37Q275 37 310 65Q345 93 361 133V444H410ZM353 513H307L239 610L171 513H125L217 644H261Z" glyph-name="ucircumflex" horiz-adv-x="481" unicode="&#251;" /><glyph d="M410 0H361V71Q341 40 304 15.5Q267 -9 220 -9Q145 -9 105.5 35.5Q66 80 66 150V444H115V157Q115 106 142.5 71.5Q170 37 229 37Q275 37 310 65Q345 93 361 133V444H410ZM144 571Q144 584 153.5 593.5Q163 603 177 603Q190 603 199.5 593.5Q209 584 209 571Q209 557 199.5 547.5Q190 538 177 538Q163 538 153.5 547.5Q144 557 144 571ZM269 571Q269 584 278.5 593.5Q288 603 301 603Q314 603 324 593.5Q334 584 334 571Q334 557 324 547.5Q314 538 301 538Q288 538 278.5 547.5Q269 557 269 571Z" glyph-name="udieresis" horiz-adv-x="481" unicode="&#252;" /><glyph d="M410 0H361V71Q341 40 304 15.5Q267 -9 220 -9Q145 -9 105.5 35.5Q66 80 66 150V444H115V157Q115 106 142.5 71.5Q170 37 229 37Q275 37 310 65Q345 93 361 133V444H410ZM217 520 130 650H183L266 520Z" glyph-name="ugrave" horiz-adv-x="481" unicode="&#249;" /><glyph d="M410 0H361V71Q341 40 304 15.5Q267 -9 220 -9Q145 -9 105.5 35.5Q66 80 66 150V444H115V157Q115 106 142.5 71.5Q170 37 229 37Q275 37 310 65Q345 93 361 133V444H410ZM159 520 233 650H278L204 520ZM269 520 343 650H388L314 520Z" glyph-name="uhungarumlaut" horiz-adv-x="481" unicode="&#369;" /><glyph d="M410 0H361V71Q341 40 304 15.5Q267 -9 220 -9Q145 -9 105.5 35.5Q66 80 66 150V444H115V157Q115 106 142.5 71.5Q170 37 229 37Q275 37 310 65Q345 93 361 133V444H410ZM139 578H340V537H139Z" glyph-name="umacron" horiz-adv-x="481" unicode="&#363;" /><glyph d="M20 -42H332V-88H20Z" glyph-name="underscore" horiz-adv-x="352" unicode="_" /><glyph glyph-name="uni00A0" horiz-adv-x="221" unicode="&#160;" /><glyph d="M177 285H133V564L47 520V565L149 615H177ZM122 0H77L494 614H539ZM474 186H498Q523 186 541 200.5Q559 215 559 242Q559 266 542 281.5Q525 297 498 297Q473 297 455 281.5Q437 266 433 239L394 250Q403 288 430.5 311.5Q458 335 498 335Q546 335 573 309Q600 283 600 243Q600 216 584.5 195.5Q569 175 547 169Q573 162 590 142Q607 122 607 93Q607 52 578 23.5Q549 -5 498 -5Q455 -5 425 18Q395 41 388 83L428 94Q433 66 451 49.5Q469 33 499 33Q528 33 546 49.5Q564 66 564 93Q564 121 545 136Q526 151 499 151H474Z" glyph-name="uni2153" horiz-adv-x="662" unicode="&#8531;" /><glyph d="M216 525Q216 550 200 565Q184 580 158 580Q130 580 113 561.5Q96 543 90 515L51 526Q59 566 87.5 593Q116 620 159 620Q205 620 232 594Q259 568 259 525Q259 494 239 468Q219 442 194 415L108 323H262V285H49V314L161 436Q186 462 201 482.5Q216 503 216 525ZM176 0H130L547 614H593ZM528 186H552Q577 186 594.5 200.5Q612 215 612 242Q612 266 595.5 281.5Q579 297 552 297Q527 297 509 281.5Q491 266 486 239L448 250Q456 288 484 311.5Q512 335 552 335Q600 335 627 309Q654 283 654 243Q654 216 638.5 195.5Q623 175 601 169Q626 162 643 142Q660 122 660 93Q660 52 631.5 23.5Q603 -5 552 -5Q509 -5 479 18Q449 41 442 83L482 94Q486 66 504.5 49.5Q523 33 553 33Q581 33 599.5 49.5Q618 66 618 93Q618 121 599 136Q580 151 553 151H528Z" glyph-name="uni2154" horiz-adv-x="715" unicode="&#8532;" /><glyph d="M177 285H133V564L47 520V565L149 615H177ZM122 0H77L494 614H539ZM494 -5Q445 -5 412 21.5Q379 48 379 91Q379 122 397 144Q415 166 443 173Q420 182 406 202Q392 222 392 247Q392 287 421.5 311Q451 335 494 335Q537 335 566.5 311Q596 287 596 247Q596 222 581.5 202Q567 182 544 173Q572 166 590 144Q608 122 608 91Q608 48 575.5 21.5Q543 -5 494 -5ZM494 192Q520 192 537.5 207.5Q555 223 555 246Q555 269 537.5 284.5Q520 300 494 300Q467 300 449.5 284.5Q432 269 432 246Q432 223 449.5 207.5Q467 192 494 192ZM494 31Q525 31 545.5 49Q566 67 566 93Q566 120 545.5 138Q525 156 494 156Q462 156 442 138Q422 120 422 93Q422 67 442 49Q462 31 494 31Z" glyph-name="uni215B" horiz-adv-x="660" unicode="&#8539;" /><glyph d="M163 0H117L534 614H580ZM136 471H160Q185 471 203 485.5Q221 500 221 527Q221 550 204 565.5Q187 581 160 581Q135 581 117.5 566Q100 551 95 524L56 534Q65 573 92.5 596.5Q120 620 160 620Q208 620 235.5 594Q263 568 263 528Q263 501 247 480.5Q231 460 209 454Q235 447 252 426.5Q269 406 269 378Q269 337 240 308.5Q211 280 161 280Q118 280 87.5 303Q57 326 50 368L90 379Q95 351 113.5 334.5Q132 318 161 318Q190 318 208 334Q226 350 226 378Q226 405 207 420.5Q188 436 161 436H136ZM535 -5Q486 -5 453 21.5Q420 48 420 91Q420 122 438 144Q456 166 484 173Q461 182 446.5 202Q432 222 432 247Q432 287 462 311Q492 335 535 335Q578 335 607 311Q636 287 636 247Q636 222 622 202Q608 182 585 173Q613 166 631 144Q649 122 649 91Q649 48 616 21.5Q583 -5 535 -5ZM535 192Q561 192 578.5 207.5Q596 223 596 246Q596 269 578.5 284.5Q561 300 535 300Q508 300 490.5 284.5Q473 269 473 246Q473 223 490.5 207.5Q508 192 535 192ZM535 31Q566 31 586.5 49Q607 67 607 93Q607 120 586.5 138Q566 156 535 156Q503 156 483 138Q463 120 463 93Q463 67 483 49Q503 31 535 31Z" glyph-name="uni215C" horiz-adv-x="701" unicode="&#8540;" /><glyph d="M164 0H119L536 614H582ZM165 460Q146 460 131.5 451.5Q117 443 108 432H71V615H254V576H108V476Q117 484 133 490.5Q149 497 168 497Q214 497 243.5 466Q273 435 273 389Q273 343 242.5 311.5Q212 280 164 280Q121 280 90.5 302.5Q60 325 52 368L92 378Q98 350 116.5 334Q135 318 164 318Q193 318 212 338.5Q231 359 231 389Q231 419 212.5 439.5Q194 460 165 460ZM536 -5Q487 -5 454.5 21.5Q422 48 422 91Q422 122 440 144Q458 166 485 173Q463 182 448.5 202Q434 222 434 247Q434 287 463.5 311Q493 335 536 335Q579 335 608.5 311Q638 287 638 247Q638 222 623.5 202Q609 182 587 173Q614 166 632 144Q650 122 650 91Q650 48 617.5 21.5Q585 -5 536 -5ZM536 192Q562 192 579.5 207.5Q597 223 597 246Q597 269 579.5 284.5Q562 300 536 300Q510 300 492.5 284.5Q475 269 475 246Q475 223 492.5 207.5Q510 192 536 192ZM536 31Q567 31 587.5 49Q608 67 608 93Q608 120 587.5 138Q567 156 536 156Q505 156 485 138Q465 120 465 93Q465 67 485 49Q505 31 536 31Z" glyph-name="uni215D" horiz-adv-x="703" unicode="&#8541;" /><glyph d="M103 0H58L475 614H521ZM145 284H101L215 575H46V614H261V581ZM475 -5Q426 -5 393 21.5Q360 48 360 91Q360 122 378.5 144Q397 166 424 173Q401 182 387 202Q373 222 373 247Q373 287 402.5 311Q432 335 475 335Q518 335 547.5 311Q577 287 577 247Q577 222 562.5 202Q548 182 525 173Q553 166 571 144Q589 122 589 91Q589 48 556.5 21.5Q524 -5 475 -5ZM475 192Q501 192 518.5 207.5Q536 223 536 246Q536 269 518.5 284.5Q501 300 475 300Q448 300 430.5 284.5Q413 269 413 246Q413 223 430.5 207.5Q448 192 475 192ZM475 31Q506 31 526.5 49Q547 67 547 93Q547 120 526.5 138Q506 156 475 156Q444 156 423.5 138Q403 120 403 93Q403 67 423.5 49Q444 31 475 31Z" glyph-name="uni215E" horiz-adv-x="641" unicode="&#8542;" /><glyph d="M410 0Q379 -52 369.5 -75Q360 -98 360 -117Q360 -131 367 -138Q374 -145 385 -145Q395 -145 403.5 -141.5Q412 -138 422 -131V-167Q412 -174 401 -178Q390 -182 377 -182Q352 -182 336 -167Q320 -152 320 -122Q320 -98 332.5 -71Q345 -44 370 0H361V71Q341 40 304 15.5Q267 -9 220 -9Q145 -9 105.5 35.5Q66 80 66 150V444H115V157Q115 106 142.5 71.5Q170 37 229 37Q275 37 310 65Q345 93 361 133V444H410Z" glyph-name="uogonek" horiz-adv-x="481" unicode="&#371;" /><glyph d="M410 0H361V71Q341 40 304 15.5Q267 -9 220 -9Q145 -9 105.5 35.5Q66 80 66 150V444H115V157Q115 106 142.5 71.5Q170 37 229 37Q275 37 310 65Q345 93 361 133V444H410ZM320 580Q320 546 296.5 522.5Q273 499 239 499Q205 499 181.5 522.5Q158 546 158 580Q158 614 181.5 637.5Q205 661 239 661Q273 661 296.5 637.5Q320 614 320 580ZM288 580Q288 601 273.5 615Q259 629 239 629Q219 629 204.5 615Q190 601 190 580Q190 559 204.5 545Q219 531 239 531Q259 531 273.5 545Q288 559 288 580Z" glyph-name="uring" horiz-adv-x="481" unicode="&#367;" /><glyph d="M410 0H361V71Q341 40 304 15.5Q267 -9 220 -9Q145 -9 105.5 35.5Q66 80 66 150V444H115V157Q115 106 142.5 71.5Q170 37 229 37Q275 37 310 65Q345 93 361 133V444H410ZM363 625Q363 578 346 549Q329 520 295 520Q258 520 235.5 552.5Q213 585 187 585Q170 585 160.5 568Q151 551 151 523H116Q116 570 133 599Q150 628 184 628Q222 628 244 595.5Q266 563 292 563Q309 563 318.5 580Q328 597 328 625Z" glyph-name="utilde" horiz-adv-x="481" unicode="&#361;" /><glyph d="M195 0 18 444H71L217 69L363 444H414L238 0Z" glyph-name="v" horiz-adv-x="432" unicode="v" /><glyph d="M429 78 538 444H586L452 0H409L302 367L195 0H152L18 444H67L176 78L282 444H323Z" glyph-name="w" horiz-adv-x="604" unicode="w" /><glyph d="M429 78 538 444H586L452 0H409L302 367L195 0H152L18 444H67L176 78L282 444H323ZM273 520 356 650H409L322 520Z" glyph-name="wacute" horiz-adv-x="604" unicode="&#7811;" /><glyph d="M429 78 538 444H586L452 0H409L302 367L195 0H152L18 444H67L176 78L282 444H323ZM416 513H370L302 610L234 513H188L280 644H324Z" glyph-name="wcircumflex" horiz-adv-x="604" unicode="&#373;" /><glyph d="M429 78 538 444H586L452 0H409L302 367L195 0H152L18 444H67L176 78L282 444H323ZM207 571Q207 584 216.5 593.5Q226 603 240 603Q253 603 262.5 593.5Q272 584 272 571Q272 557 262.5 547.5Q253 538 240 538Q226 538 216.5 547.5Q207 557 207 571ZM332 571Q332 584 341.5 593.5Q351 603 364 603Q377 603 387 593.5Q397 584 397 571Q397 557 387 547.5Q377 538 364 538Q351 538 341.5 547.5Q332 557 332 571Z" glyph-name="wdieresis" horiz-adv-x="604" unicode="&#7813;" /><glyph d="M429 78 538 444H586L452 0H409L302 367L195 0H152L18 444H67L176 78L282 444H323ZM280 520 193 650H246L329 520Z" glyph-name="wgrave" horiz-adv-x="604" unicode="&#7809;" /><glyph d="M243 228 407 0H352L215 190L77 0H24L188 226L31 444H86L216 263L347 444H400Z" glyph-name="x" horiz-adv-x="431" unicode="x" /><glyph d="M192 6 18 444H71L217 68L363 444H414L209 -68Q187 -123 157 -151Q127 -179 84 -179Q68 -179 54.5 -174.5Q41 -170 33 -164L44 -124Q51 -128 60 -131.5Q69 -135 82 -135Q111 -135 131 -116.5Q151 -98 167 -58Z" glyph-name="y" horiz-adv-x="432" unicode="y" /><glyph d="M192 6 18 444H71L217 68L363 444H414L209 -68Q187 -123 157 -151Q127 -179 84 -179Q68 -179 54.5 -174.5Q41 -170 33 -164L44 -124Q51 -128 60 -131.5Q69 -135 82 -135Q111 -135 131 -116.5Q151 -98 167 -58ZM187 520 270 650H323L236 520Z" glyph-name="yacute" horiz-adv-x="432" unicode="&#253;" /><glyph d="M192 6 18 444H71L217 68L363 444H414L209 -68Q187 -123 157 -151Q127 -179 84 -179Q68 -179 54.5 -174.5Q41 -170 33 -164L44 -124Q51 -128 60 -131.5Q69 -135 82 -135Q111 -135 131 -116.5Q151 -98 167 -58ZM330 513H284L216 610L148 513H102L194 644H238Z" glyph-name="ycircumflex" horiz-adv-x="432" unicode="&#375;" /><glyph d="M192 6 18 444H71L217 68L363 444H414L209 -68Q187 -123 157 -151Q127 -179 84 -179Q68 -179 54.5 -174.5Q41 -170 33 -164L44 -124Q51 -128 60 -131.5Q69 -135 82 -135Q111 -135 131 -116.5Q151 -98 167 -58ZM122 571Q122 584 131.5 593.5Q141 603 155 603Q168 603 177.5 593.5Q187 584 187 571Q187 557 177.5 547.5Q168 538 155 538Q141 538 131.5 547.5Q122 557 122 571ZM247 571Q247 584 256.5 593.5Q266 603 279 603Q292 603 302 593.5Q312 584 312 571Q312 557 302 547.5Q292 538 279 538Q266 538 256.5 547.5Q247 557 247 571Z" glyph-name="ydieresis" horiz-adv-x="432" unicode="&#255;" /><glyph d="M283 144V0H233V144H76V185H233V262H76V303H220L29 614H85L259 326L433 614H487L296 303H440V262H283V185H440V144Z" glyph-name="yen" horiz-adv-x="516" unicode="&#165;" /><glyph d="M285 144V0H234V144H77V185H234V262H77V303H221L33 614H89L261 326L432 614H486L298 303H442V262H285V185H442V144Z" glyph-name="yen.lt" horiz-adv-x="520" /><glyph d="M192 6 18 444H71L217 68L363 444H414L209 -68Q187 -123 157 -151Q127 -179 84 -179Q68 -179 54.5 -174.5Q41 -170 33 -164L44 -124Q51 -128 60 -131.5Q69 -135 82 -135Q111 -135 131 -116.5Q151 -98 167 -58ZM194 520 107 650H160L243 520Z" glyph-name="ygrave" horiz-adv-x="432" unicode="&#7923;" /><glyph d="M375 0H39V35L310 401H44V444H372V409L102 43H375Z" glyph-name="z" horiz-adv-x="416" unicode="z" /><glyph d="M375 0H39V35L310 401H44V444H372V409L102 43H375ZM184 520 267 650H320L233 520Z" glyph-name="zacute" horiz-adv-x="416" unicode="&#378;" /><glyph d="M375 0H39V35L310 401H44V444H372V409L102 43H375ZM235 515H191L99 645H145L213 550L281 645H327Z" glyph-name="zcaron" horiz-adv-x="416" unicode="&#382;" /><glyph d="M375 0H39V35L310 401H44V444H372V409L102 43H375ZM247 579Q247 565 237 555Q227 545 213 545Q199 545 189 555Q179 565 179 579Q179 592 189 602.5Q199 613 213 613Q227 613 237 602.5Q247 592 247 579Z" glyph-name="zdotaccent" horiz-adv-x="416" unicode="&#380;" /><glyph d="M268 -9Q167 -9 104.5 79Q42 167 42 307Q42 447 104.5 535Q167 623 268 623Q369 623 431 535Q493 447 493 307Q493 167 431 79Q369 -9 268 -9ZM268 576Q187 576 140 500.5Q93 425 93 307Q93 189 140 113.5Q187 38 268 38Q349 38 396 113.5Q443 189 443 307Q443 425 396 500.5Q349 576 268 576Z" glyph-name="zero" horiz-adv-x="536" unicode="0" /><glyph d="M260 -9Q159 -9 97.5 79Q36 167 36 307Q36 447 97.5 535Q159 623 260 623Q361 623 422.5 535Q484 447 484 307Q484 167 422.5 79Q361 -9 260 -9ZM260 576Q179 576 132.5 500.5Q86 425 86 307Q86 189 132.5 113.5Q179 38 260 38Q341 38 387.5 113.5Q434 189 434 307Q434 425 387.5 500.5Q341 576 260 576Z" glyph-name="zero.lt" horiz-adv-x="520" /></font>
</defs>
</svg>
